<?xml version="1.0" standalone="no"?>
<!DOCTYPE svg PUBLIC "-//W3C//DTD SVG 20010904//EN"
 "http://www.w3.org/TR/2001/REC-SVG-20010904/DTD/svg10.dtd">
<svg version="1.0" xmlns="http://www.w3.org/2000/svg"
 width="960.000000pt" height="1280.000000pt" viewBox="0 0 960.000000 1280.000000"
 preserveAspectRatio="xMidYMid meet">

<g transform="translate(0.000000,1280.000000) scale(0.100000,-0.100000)"
fill="#000000" stroke="none">
<path d="M4591 12566 c9 -9 -33 -54 -44 -48 -18 9 -67 -21 -68 -42 0 -11 -3
-15 -6 -8 -5 14 -43 17 -43 3 0 -6 4 -12 9 -15 4 -3 6 -17 3 -32 -4 -24 -3
-25 17 -15 19 11 21 9 21 -14 0 -28 -15 -32 -40 -10 -14 13 -19 13 -38 -1 -22
-15 -31 -64 -13 -64 5 0 4 -13 -2 -30 -6 -16 -15 -30 -18 -30 -4 0 -25 17 -47
39 -21 21 -48 42 -60 45 -11 4 -35 20 -54 36 -18 16 -39 30 -45 30 -7 0 -13 4
-13 10 0 5 -14 7 -32 3 -62 -11 -95 -30 -109 -62 -8 -17 -17 -31 -20 -31 -4 0
-22 -15 -41 -32 -19 -18 -58 -51 -87 -73 -29 -22 -85 -77 -125 -122 -56 -64
-77 -96 -91 -140 -22 -73 -59 -137 -93 -164 -53 -40 -103 -69 -122 -69 -14 0
-17 -5 -13 -21 5 -16 -3 -30 -30 -53 -34 -30 -35 -33 -29 -81 11 -77 5 -98
-24 -92 -30 5 -33 -18 -4 -33 25 -14 14 -45 -34 -95 -34 -35 -45 -55 -29 -55
3 0 15 7 25 17 28 25 32 9 9 -36 -17 -32 -21 -58 -21 -128 1 -79 18 -195 33
-219 3 -5 10 -48 17 -94 6 -47 17 -108 25 -136 8 -28 24 -111 35 -185 11 -74
29 -163 40 -197 11 -35 20 -82 20 -104 0 -22 7 -67 16 -100 8 -33 14 -72 12
-87 -3 -22 -7 -26 -30 -23 -24 2 -28 -1 -28 -23 0 -31 -4 -31 -56 -3 -22 12
-48 18 -57 15 -25 -9 -22 -79 8 -182 17 -58 28 -124 32 -199 3 -63 11 -123 19
-138 8 -15 14 -32 14 -38 0 -19 54 -90 68 -90 15 0 38 -47 28 -57 -3 -4 -12
-1 -18 5 -31 31 -36 0 -12 -71 22 -65 64 -63 64 3 0 28 25 43 41 24 10 -12 10
-17 1 -23 -7 -4 -13 -24 -14 -44 -1 -22 -9 -44 -20 -53 -23 -22 -23 -31 1 -39
12 -4 17 -14 16 -33 -3 -38 -4 -42 -12 -40 -24 5 -62 -16 -67 -38 -6 -22 17
-74 33 -74 3 0 21 -14 40 -30 18 -16 50 -32 70 -36 74 -12 76 -14 85 -84 2
-14 6 -32 9 -40 3 -8 8 -32 12 -54 3 -21 16 -62 29 -90 12 -28 28 -78 35 -111
7 -33 22 -77 32 -97 11 -21 19 -48 19 -62 0 -14 5 -37 11 -53 6 -15 13 -53 15
-83 2 -30 5 -62 6 -70 0 -8 0 -35 -1 -60 l-2 -45 -23 29 c-21 25 -26 27 -47
15 -46 -24 -95 -63 -146 -117 -68 -71 -76 -113 -43 -221 13 -42 29 -105 37
-141 21 -95 36 -141 55 -180 10 -19 18 -39 18 -46 0 -11 20 -61 56 -141 8 -17
14 -38 14 -46 0 -9 5 -28 11 -44 6 -15 10 -62 10 -103 -2 -58 4 -91 24 -145
14 -38 25 -80 25 -92 0 -12 9 -37 20 -55 11 -18 17 -41 14 -53 -3 -12 7 -44
25 -79 17 -32 31 -60 31 -62 0 -11 -24 -2 -36 14 -11 14 -15 15 -23 3 -7 -11
-16 -11 -55 4 -26 10 -51 25 -56 34 -4 9 -14 55 -20 101 -7 47 -15 105 -19
130 l-7 45 -56 -1 c-105 -2 -247 -92 -284 -179 -24 -59 -18 -106 20 -151 38
-45 50 -74 48 -125 -1 -22 4 -42 13 -49 8 -7 12 -16 9 -21 -2 -5 2 -22 11 -38
8 -17 15 -39 15 -51 0 -11 9 -29 20 -40 11 -11 30 -41 43 -67 44 -91 89 -153
110 -153 6 0 25 -16 43 -34 29 -30 134 -93 134 -81 0 3 25 -9 55 -25 31 -17
69 -32 85 -33 15 -2 39 -10 52 -19 12 -8 33 -18 45 -22 12 -4 31 -20 42 -35
11 -15 43 -39 71 -52 27 -13 50 -27 50 -30 0 -4 18 -9 39 -13 22 -3 41 -9 43
-13 1 -5 37 -16 78 -27 41 -10 80 -23 87 -28 6 -5 38 -8 70 -6 49 3 58 6 62
23 2 11 8 23 15 27 17 12 114 9 158 -4 39 -12 40 -11 74 28 32 37 43 64 27 64
-5 0 -31 22 -59 48 -27 26 -96 90 -153 142 -57 52 -140 130 -185 172 -44 43
-87 78 -93 78 -7 0 -13 3 -13 8 0 18 -118 63 -201 77 -49 8 -62 23 -48 61 14
38 -3 86 -28 82 -16 -3 -18 5 -16 52 1 30 5 79 10 109 7 51 9 54 25 38 9 -9
19 -17 22 -17 4 0 32 -17 64 -39 31 -21 71 -46 87 -54 17 -9 76 -60 133 -114
57 -54 132 -123 166 -153 57 -50 83 -81 111 -132 5 -10 15 -18 22 -18 7 0 16
-6 20 -12 4 -7 17 -18 28 -24 11 -6 25 -25 31 -43 5 -17 18 -41 27 -52 9 -10
17 -25 17 -32 0 -6 9 -36 20 -65 11 -29 20 -61 20 -72 0 -12 7 -20 16 -20 15
0 44 23 44 35 0 3 9 16 21 28 12 12 38 47 59 77 21 30 46 64 57 75 10 11 53
61 95 110 92 109 155 168 208 195 45 23 45 22 41 -47 -2 -24 6 -41 33 -70 l35
-39 -22 -26 c-19 -23 -84 -64 -164 -102 -13 -6 -23 -14 -23 -18 0 -5 -4 -8
-10 -8 -11 0 -156 -87 -185 -111 -170 -143 -237 -204 -250 -229 -35 -68 -8
-172 56 -214 21 -14 41 -26 43 -26 21 0 144 164 138 184 -2 5 5 6 14 2 14 -5
16 -2 11 23 -8 40 4 51 111 101 192 92 196 94 239 161 39 62 55 77 75 71 23
-6 81 15 109 39 20 17 25 18 27 6 4 -21 57 -27 122 -13 49 10 63 19 133 89
l78 78 115 1 c63 0 114 3 114 7 0 3 16 17 35 30 35 23 36 24 74 6 34 -15 41
-15 67 -2 48 25 89 30 103 13 21 -26 55 -1 76 56 9 27 28 62 40 76 31 37 38
66 37 145 -1 63 0 68 23 79 14 6 25 19 25 28 0 31 -126 157 -188 187 -52 26
-66 28 -162 27 -111 -2 -182 -8 -199 -18 -6 -4 -24 -34 -42 -66 -58 -108 -131
-170 -211 -175 -29 -2 -102 -13 -162 -24 -60 -11 -134 -22 -164 -25 l-55 -5
37 35 c40 38 131 99 176 117 15 7 58 39 94 71 48 42 66 65 66 83 0 13 3 22 8
19 4 -2 23 35 42 82 42 106 79 189 177 392 41 85 85 184 98 220 13 36 32 86
44 111 11 26 30 86 42 134 26 113 17 158 -46 226 -47 50 -65 93 -46 112 6 6
11 19 11 29 0 11 21 63 48 116 26 54 53 113 61 132 28 70 52 125 61 142 6 10
10 24 10 33 0 8 6 29 14 47 8 18 23 62 34 98 19 64 20 65 59 70 68 10 213 106
213 142 0 19 -82 2 -100 -21 -3 -4 -21 -16 -42 -28 l-36 -21 -12 28 c-17 40 3
101 41 122 28 17 39 43 19 50 -5 2 -13 18 -16 36 -6 27 -3 34 13 38 15 4 19
14 18 57 0 50 1 51 33 58 37 8 109 54 122 80 5 9 20 19 34 23 72 18 172 323
164 500 -4 96 -16 102 -107 47 -81 -49 -151 -65 -151 -35 0 11 21 33 50 54 52
36 58 48 38 68 -9 9 -8 16 4 29 47 52 86 251 59 300 -8 17 -8 25 2 35 38 39
47 64 47 133 0 49 6 82 19 110 11 22 25 77 31 121 11 72 10 85 -5 107 -14 22
-14 29 -3 49 7 13 16 25 19 28 12 10 40 72 35 77 -3 3 -14 -5 -24 -17 -25 -31
-52 -21 -52 20 0 18 6 33 16 37 11 4 13 13 9 34 -6 25 -3 29 14 29 23 0 43 51
23 58 -15 5 -16 72 -2 72 6 0 10 -6 10 -12 1 -13 55 -78 65 -78 12 0 0 307
-13 322 -8 10 -10 31 -6 61 5 35 2 53 -10 73 -10 14 -15 28 -12 31 3 3 -1 17
-8 32 -7 14 -16 45 -20 67 -3 23 -22 65 -41 94 -39 57 -40 62 -24 92 15 29 3
85 -21 93 -18 6 -70 93 -70 118 0 7 -4 18 -9 26 -8 12 -12 13 -26 1 -14 -11
-17 -10 -22 8 -4 16 -13 22 -33 22 -15 0 -38 9 -52 19 -13 11 -37 23 -51 26
-15 4 -36 20 -48 36 -26 36 -32 36 -46 0 -9 -24 -15 -29 -44 -27 -27 1 -35 6
-37 24 -2 12 -13 27 -25 33 -12 7 -34 23 -48 37 -19 19 -38 26 -67 27 -22 1
-59 10 -82 20 -31 14 -48 16 -68 9 -15 -5 -46 -8 -70 -6 -36 3 -42 6 -37 21 3
12 -4 30 -20 49 -14 16 -25 37 -25 46 0 9 -6 16 -12 17 -7 0 -24 3 -38 5 -14
2 -30 5 -37 6 -6 1 -29 16 -49 35 -42 37 -49 39 -57 19 -5 -13 -12 -13 -45 2
-24 10 -38 22 -35 29 5 13 -36 34 -49 26 -14 -8 -8 -60 7 -73 8 -7 15 -18 15
-25 0 -7 14 -18 30 -25 17 -7 30 -17 30 -22 0 -5 16 -18 35 -29 19 -12 35 -27
35 -35 0 -18 -14 -18 -30 1 -13 16 -65 21 -55 6 3 -6 -3 -15 -14 -20 -12 -7
-21 -7 -23 -1 -2 5 -25 32 -51 59 -39 40 -46 52 -33 57 9 3 16 12 16 19 0 15
-35 29 -49 20 -20 -11 -20 14 -1 38 27 34 26 37 -12 37 -18 0 -42 7 -52 15
-23 17 -35 18 -55 6 -12 -8 -11 -12 4 -28 10 -10 27 -22 38 -28 46 -23 47 -62
3 -89 -14 -9 -22 -6 -41 17 -13 15 -34 27 -46 27 -14 0 -43 22 -80 60 -55 58
-99 78 -99 45 0 -11 -6 -12 -22 -7 -13 5 -39 5 -58 2 l-35 -5 33 -12 c17 -7
32 -19 32 -27 0 -9 7 -16 15 -16 8 0 15 -4 15 -10 0 -5 9 -10 19 -10 31 0 34
-17 4 -23 -20 -4 -31 1 -46 19 -10 13 -24 24 -30 24 -7 0 -31 10 -54 22 -37
20 -44 21 -67 9 -20 -11 -39 -11 -101 -2 -42 6 -96 11 -120 11 -53 0 -75 8
-75 26 0 10 -13 14 -45 14 -25 0 -45 -3 -45 -7 0 -5 17 -22 37 -40 35 -29 37
-33 22 -48 -15 -15 -19 -15 -46 -2 -16 9 -35 27 -43 42 -8 15 -32 36 -55 47
-22 11 -37 17 -34 14z m813 -151 c32 -14 35 -17 24 -35 -17 -27 -23 -26 -64
15 -29 29 -31 35 -16 35 11 0 36 -7 56 -15z m-1274 -55 c-19 -13 -30 -13 -30
0 0 6 10 10 23 10 18 0 19 -2 7 -10z m1310 -35 c0 -8 -9 -15 -20 -15 -20 0
-26 11 -13 23 12 13 33 7 33 -8z m-20 -75 c53 -36 57 -40 35 -36 -48 8 -104
48 -105 74 0 10 7 8 24 -5 13 -10 34 -25 46 -33z m575 29 c11 -17 -2 -22 -46
-21 -54 2 -72 15 -34 23 47 10 73 10 80 -2z m-1361 -30 c-8 -13 -24 -1 -24 18
0 13 3 13 15 3 8 -7 12 -16 9 -21z m-474 -23 c0 -8 7 -17 16 -20 24 -9 10 -19
-15 -11 -12 3 -26 15 -31 26 -9 16 -7 19 10 19 11 0 20 -6 20 -14z m535 -26
c3 -5 -1 -10 -9 -10 -9 0 -16 5 -16 10 0 6 4 10 9 10 6 0 13 -4 16 -10z m1253
-24 c30 -10 31 -49 1 -44 -27 4 -64 51 -54 69 6 9 11 9 19 -3 6 -8 21 -18 34
-22z m-401 7 c4 -10 11 -21 17 -25 8 -6 8 -8 0 -8 -6 0 -21 11 -34 25 -20 21
-21 25 -6 25 9 0 20 -8 23 -17z m-507 -13 c0 -5 -8 -10 -17 -10 -15 0 -16 2
-3 10 19 12 20 12 20 0z m-300 -16 c0 -2 -7 -4 -15 -4 -8 0 -15 4 -15 10 0 5
7 7 15 4 8 -4 15 -8 15 -10z m-120 -14 c0 -11 -4 -20 -10 -20 -5 0 -10 9 -10
20 0 11 5 20 10 20 6 0 10 -9 10 -20z m-75 -10 c3 -5 1 -10 -4 -10 -6 0 -11 5
-11 10 0 6 2 10 4 10 3 0 8 -4 11 -10z m627 -30 c14 -10 28 -16 32 -13 3 3 6
1 6 -5 0 -6 -3 -13 -7 -15 -11 -6 -66 26 -71 41 -6 18 12 15 40 -8z m-224 -18
c2 -7 -5 -12 -17 -12 -14 0 -19 5 -14 15 6 17 25 15 31 -3z m100 -56 c26 -19
30 -25 17 -30 -30 -11 -55 -6 -75 14 -11 11 -20 25 -20 30 0 18 46 10 78 -14z
m-993 -56 c3 -5 2 -10 -4 -10 -5 0 -13 5 -16 10 -3 6 -2 10 4 10 5 0 13 -4 16
-10z m693 -47 c29 -27 36 -41 33 -71 -1 -9 -6 -10 -18 -4 -12 7 -29 3 -59 -14
-43 -24 -74 -23 -74 2 0 8 -5 14 -10 14 -15 0 -33 51 -22 62 13 13 36 1 47
-25 17 -38 40 -27 43 21 4 50 17 53 60 15z m920 6 l27 -22 -25 6 c-14 4 -28 7
-31 7 -4 0 -9 7 -13 15 -8 21 12 19 42 -6z m-125 -16 c29 -16 30 -18 10 -21
-12 -2 -31 6 -42 17 -25 25 -11 27 32 4z m-1258 -23 c-3 -5 -17 -10 -30 -10
-13 0 -27 5 -30 10 -4 6 8 10 30 10 22 0 34 -4 30 -10z m122 -26 c2 -13 1 -15
-4 -4 -3 8 -11 19 -17 23 -7 6 -6 7 4 4 8 -2 16 -12 17 -23z m-977 -354 c0 -5
-5 -10 -11 -10 -5 0 -7 5 -4 10 3 6 8 10 11 10 2 0 4 -4 4 -10z m2128 -196
c18 -12 53 -18 119 -20 59 -2 106 -9 125 -19 17 -8 37 -15 44 -15 7 0 19 -7
28 -15 8 -8 36 -26 63 -39 112 -56 141 -66 172 -60 24 5 49 -2 104 -29 87 -43
117 -74 147 -152 12 -33 27 -70 33 -82 6 -13 7 -41 2 -70 -12 -76 -14 -137 -4
-155 5 -10 11 -75 14 -145 3 -70 6 -139 8 -153 1 -19 -3 -26 -19 -28 -23 -3
-74 33 -74 53 0 19 -71 88 -110 106 -61 29 -104 41 -155 46 -27 2 -66 8 -85
13 -19 5 -53 14 -75 19 -56 15 -211 14 -235 -1 -15 -10 -22 -10 -32 0 -14 14
-62 16 -87 3 -10 -6 -39 -11 -65 -12 -26 -2 -49 -6 -52 -10 -2 -4 -23 -10 -47
-14 -23 -4 -56 -18 -74 -31 -37 -28 -120 -34 -129 -10 -3 8 -25 19 -48 26 -24
6 -56 23 -71 38 -24 22 -39 26 -102 29 -45 2 -88 10 -106 20 -23 12 -63 18
-142 20 -60 1 -119 3 -130 3 -11 1 -37 -2 -57 -6 -32 -5 -38 -3 -38 11 0 14
-5 16 -22 10 -13 -4 -66 -9 -118 -11 l-96 -3 -2 25 c-4 50 44 107 173 206 33
26 78 65 99 87 26 27 52 43 75 47 20 4 40 9 46 12 5 3 18 7 29 7 11 1 26 12
34 23 8 12 23 22 34 22 11 0 37 18 59 40 22 22 44 40 49 40 6 0 10 7 10 15 0
9 12 20 28 27 15 6 47 20 72 31 78 35 170 67 195 67 8 0 15 4 15 9 0 5 25 13
55 16 30 4 57 10 59 14 3 4 62 8 131 9 105 2 132 0 153 -14z m-960 -855 c23
-12 42 -25 42 -29 0 -5 -64 -9 -142 -8 -184 0 -324 -26 -400 -76 -30 -20 -40
-12 -26 20 43 93 395 155 526 93z m223 -35 c42 -38 10 -46 -58 -13 -24 11 -43
25 -43 31 0 16 79 2 101 -18z m-802 1 c8 -9 -6 -15 -73 -34 -81 -23 -107 -43
-100 -80 8 -40 -10 -74 -57 -106 -24 -17 -74 -51 -110 -77 -62 -46 -89 -58
-89 -40 0 18 60 94 139 175 47 48 88 92 89 98 2 5 9 9 16 9 7 0 18 11 25 24
16 30 64 46 116 40 21 -3 41 -7 44 -9z m2052 4 c37 -20 9 -31 -60 -23 -36 4
-73 7 -81 7 -8 0 -73 -3 -145 -6 -84 -4 -125 -3 -115 3 8 5 33 10 55 11 22 0
51 5 65 9 37 12 258 12 281 -1z m-1342 -30 l33 -20 -38 -20 c-49 -24 -52 -24
-66 6 -8 19 -8 28 2 40 16 20 28 19 69 -6z m1009 -36 c27 -6 29 -29 3 -43 -14
-7 -27 -6 -48 5 -36 19 -49 19 -100 -4 -37 -17 -43 -18 -55 -4 -21 26 24 54
84 52 26 -2 51 1 55 5 4 3 14 4 22 0 9 -4 26 -9 39 -11z m-467 -119 c9 -12 4
-14 -30 -14 -33 0 -41 4 -41 18 0 15 6 18 30 14 16 -2 35 -10 41 -18z m729 -1
c0 -5 17 -9 37 -10 20 -1 39 -6 42 -11 3 -5 16 -12 29 -16 12 -4 22 -12 22
-17 0 -11 -53 -12 -65 -1 -6 5 -29 14 -52 21 -41 11 -51 20 -36 34 9 9 23 9
23 0z m510 -12 c0 -23 -16 -36 -25 -21 -9 14 1 40 15 40 5 0 10 -9 10 -19z
m125 -92 c14 -28 25 -65 25 -86 l-1 -38 -45 50 c-71 78 -77 89 -69 134 l7 40
28 -26 c16 -14 41 -48 55 -74z m-251 -9 c18 -66 22 -159 11 -255 -8 -75 -54
-180 -106 -246 -32 -41 -36 -59 -15 -59 30 0 126 154 126 202 0 9 4 19 8 22 5
3 17 40 27 83 10 43 23 87 29 98 5 11 9 23 8 28 -1 4 4 7 11 7 8 0 22 -18 32
-40 17 -38 17 -50 6 -164 -9 -86 -10 -130 -2 -143 5 -11 11 -51 12 -89 1 -38
8 -81 15 -96 18 -35 18 -86 0 -140 -16 -51 -23 -81 -32 -134 -8 -55 -32 -132
-55 -179 -10 -22 -19 -47 -19 -56 0 -9 -7 -22 -15 -29 -8 -7 -15 -18 -15 -24
0 -14 -125 -5 -154 11 -11 6 -27 8 -36 6 -22 -6 -38 16 -20 27 10 6 10 15 0
44 -6 20 -16 36 -21 36 -5 0 -9 18 -9 40 l0 40 -64 0 c-44 0 -67 5 -76 15 -7
8 -21 15 -32 15 -16 0 -19 5 -14 25 6 23 3 25 -24 25 -27 0 -30 -2 -24 -25 4
-15 2 -25 -5 -25 -6 0 -11 18 -11 43 0 37 4 44 32 58 72 35 52 111 -32 124
-32 5 -40 9 -27 14 10 4 19 11 20 16 1 5 14 8 29 6 21 -2 88 22 88 32 0 1 -55
2 -122 2 l-123 0 -95 47 c-52 25 -96 45 -97 44 -1 -1 4 -19 11 -40 18 -52 11
-76 -23 -76 -15 0 -31 4 -36 9 -6 5 -37 23 -70 41 -33 18 -65 40 -71 48 -8 11
-21 13 -50 8 -21 -3 -58 -9 -80 -12 -27 -4 -59 -1 -90 9 -27 9 -93 19 -146 23
l-97 6 -53 -34 c-80 -53 -94 -58 -127 -52 -21 5 -31 12 -31 25 0 19 58 92 95
119 108 79 190 204 259 393 28 75 103 108 165 71 31 -18 34 -24 81 -164 32
-95 96 -217 127 -244 16 -14 29 -23 31 -22 5 5 -32 111 -41 117 -5 3 -5 23 -1
44 6 33 5 37 -10 32 -20 -8 -30 15 -39 85 -10 71 14 73 85 7 18 -17 51 -40 73
-51 21 -11 61 -36 88 -54 27 -19 60 -37 73 -40 13 -3 24 -10 24 -14 0 -5 33
-14 73 -20 123 -21 234 -13 278 20 16 11 33 20 38 20 6 0 21 11 35 25 18 18
36 25 64 25 32 0 42 6 63 33 22 30 24 41 27 182 2 83 5 157 8 165 8 24 40 -26
58 -90z m-2509 60 c20 -22 14 -77 -7 -64 -7 4 -28 8 -47 8 -49 1 -53 29 -9 56
41 25 41 25 63 0z m2105 -24 c55 -17 130 -56 130 -69 0 -4 -8 -6 -17 -3 -10 2
-61 14 -113 26 -110 25 -115 27 -99 46 14 18 42 18 99 0z m-750 -33 c0 -10 -9
-13 -27 -11 -31 4 -42 25 -16 30 26 6 43 -2 43 -19z m-1383 -100 c4 -10 11
-21 17 -25 8 -5 7 -8 -1 -8 -20 0 8 -71 33 -80 13 -5 32 -32 49 -67 14 -32 34
-75 43 -95 9 -21 23 -38 30 -38 16 0 15 11 -3 57 -15 41 -37 154 -31 160 2 3
13 -5 24 -17 16 -17 29 -21 77 -19 45 2 60 -1 70 -15 7 -9 26 -19 41 -22 16
-3 31 -8 34 -12 3 -4 16 -8 30 -10 14 -2 50 -10 82 -18 31 -8 63 -12 70 -9 8
3 20 -1 27 -9 21 -25 74 -29 152 -11 111 26 260 76 299 100 19 12 43 24 53 28
31 11 21 -53 -21 -132 -48 -91 -87 -134 -114 -125 -39 12 -89 -6 -132 -48 -26
-26 -36 -43 -28 -46 7 -2 19 2 28 9 11 9 18 9 26 1 8 -8 1 -16 -26 -28 -20
-10 -36 -21 -36 -26 0 -4 -8 -8 -18 -8 -36 0 -87 -36 -92 -66 -5 -25 -11 -30
-47 -35 -61 -8 -116 -36 -135 -69 -9 -17 -24 -30 -33 -30 -8 0 -15 -9 -15 -20
0 -11 5 -20 12 -20 19 0 -1 -14 -25 -17 -12 -2 -34 -12 -50 -24 l-27 -20 -35
27 c-19 14 -32 30 -29 36 3 5 -2 20 -11 34 -9 14 -14 32 -11 40 3 8 -12 25
-39 44 -25 17 -46 35 -46 40 -1 6 -2 15 -3 20 0 6 -4 9 -8 8 -3 -2 -22 13 -41
33 -41 42 -84 58 -93 34 -4 -8 -18 -15 -33 -15 -21 0 -29 -7 -38 -32 -12 -35
-36 -118 -37 -130 -1 -4 -7 -13 -13 -19 -7 -7 -13 -22 -13 -33 0 -18 -1 -18
-20 4 -11 12 -22 39 -25 59 -3 20 -11 61 -17 91 -12 61 -12 86 2 280 15 210
30 269 77 294 37 20 62 20 70 -1z m143 -56 c0 -10 -5 -17 -11 -15 -6 2 -10 7
-10 11 1 4 1 17 1 30 0 18 2 19 10 7 5 -8 10 -23 10 -33z m744 -617 c16 -15
-1 -36 -50 -60 -27 -13 -57 -27 -66 -31 -10 -5 -20 -4 -23 1 -3 6 0 10 7 10 8
0 14 11 13 27 0 50 82 87 119 53z m946 -115 c0 -9 8 -18 18 -22 27 -10 71 -56
72 -76 0 -10 7 -25 15 -33 21 -22 19 -39 -7 -51 -18 -8 -35 -4 -78 16 -30 13
-73 26 -95 27 -22 1 -45 2 -51 3 -7 1 -26 15 -43 33 -22 22 -30 40 -28 57 3
22 9 25 44 26 22 1 51 8 64 17 31 22 89 24 89 3z m-274 -455 c57 -22 84 -35
84 -43 0 -8 75 -91 124 -138 26 -25 49 -72 61 -123 3 -12 -3 -25 -15 -33 -11
-8 -20 -21 -20 -29 0 -20 85 -104 105 -104 8 0 15 -9 15 -19 0 -11 5 -23 11
-27 6 -3 9 -15 6 -25 -3 -10 1 -23 9 -29 16 -14 14 -68 -4 -75 -8 -3 -11 -13
-8 -23 8 -23 -29 -42 -78 -42 -19 0 -39 -7 -46 -15 -7 -9 -29 -15 -51 -15 -21
0 -58 -7 -81 -15 -38 -12 -50 -12 -109 3 -44 12 -79 29 -104 51 -21 18 -51 38
-67 43 -15 5 -28 14 -28 19 0 5 -6 9 -13 9 -16 0 -37 42 -37 74 0 30 60 60
140 71 75 10 108 31 122 78 6 21 14 33 18 27 4 -7 12 1 20 19 7 17 16 31 21
31 5 0 9 7 9 15 0 8 7 15 15 15 8 0 15 6 15 14 0 8 5 16 12 18 8 3 8 9 0 24
-6 10 -12 13 -12 7 0 -26 -103 -16 -162 16 -72 37 -248 69 -403 73 -66 1 -126
-1 -132 -5 -8 -5 -13 -3 -13 3 0 6 -4 9 -9 6 -5 -3 -7 -15 -4 -26 3 -11 1 -20
-4 -20 -14 0 -53 30 -53 41 0 16 81 47 140 53 184 18 172 15 151 37 -15 16
-35 21 -91 24 -75 3 -86 7 -76 24 12 19 70 23 109 6 21 -8 43 -13 48 -9 6 3
34 8 62 10 29 2 72 7 97 13 54 11 186 6 226 -9z m-299 -546 c-3 -3 -12 -4 -19
-1 -8 3 -5 6 6 6 11 1 17 -2 13 -5z m-90 -65 l28 -11 -29 -12 c-31 -13 -107 1
-83 16 6 3 15 4 19 2 4 -3 8 0 8 5 0 14 21 14 57 0z m-42 -52 c24 -19 10 -24
-47 -19 -32 3 -48 9 -48 18 0 18 70 19 95 1z m-995 -1469 c0 -20 16 -25 22 -6
3 8 7 9 11 2 3 -6 -2 -20 -12 -30 -15 -17 -16 -23 -4 -52 7 -17 18 -32 24 -32
7 0 8 7 4 18 -4 9 -10 30 -13 46 l-5 29 32 -22 c28 -20 31 -27 31 -77 0 -41
-4 -54 -15 -54 -8 0 -15 -7 -15 -15 0 -8 -9 -15 -20 -15 -16 0 -20 7 -20 30 0
20 -8 34 -23 45 -16 10 -24 26 -25 44 0 16 -6 48 -12 71 -6 23 -9 49 -5 57 5
14 8 13 25 -2 11 -10 20 -26 20 -37z m100 -273 c0 -8 -7 -15 -15 -15 -8 0 -15
7 -15 15 0 8 7 15 15 15 8 0 15 -7 15 -15z m0 -40 c20 -24 2 -37 -31 -20 -16
9 -29 20 -29 25 0 15 46 12 60 -5z m1489 -52 c20 -38 13 -104 -15 -148 -14
-22 -23 -32 -20 -22 3 10 -1 48 -10 85 -27 116 -27 124 -13 133 14 9 37 -11
58 -48z m-629 -248 c0 -16 -27 -32 -37 -22 -3 4 -3 13 0 22 8 20 37 20 37 0z"/>
<path d="M5550 9656 c0 -14 67 -76 82 -76 18 0 6 25 -28 56 -38 37 -54 42 -54
20z"/>
<path d="M4125 9584 c30 -25 75 -48 81 -41 6 6 -83 67 -98 67 -7 -1 1 -12 17
-26z"/>
<path d="M3980 9530 c0 -5 5 -10 10 -10 6 0 10 5 10 10 0 6 -4 10 -10 10 -5 0
-10 -4 -10 -10z"/>
<path d="M5087 8739 c-4 -15 1 -23 20 -30 34 -12 47 6 25 32 -21 25 -38 24
-45 -2z"/>
<path d="M5167 8704 c3 -7 27 -20 55 -29 62 -18 192 -5 220 23 17 16 10 17
-132 19 -126 2 -148 0 -143 -13z"/>
<path d="M6185 12390 c3 -5 10 -10 16 -10 5 0 9 5 9 10 0 6 -7 10 -16 10 -8 0
-12 -4 -9 -10z"/>
<path d="M6261 12351 c-10 -6 -10 -10 -1 -16 13 -8 24 -1 19 14 -3 6 -10 7
-18 2z"/>
<path d="M6716 12174 c-8 -22 -8 -26 4 -19 5 3 18 0 29 -7 25 -15 32 -9 24 20
-6 26 -48 31 -57 6z"/>
<path d="M7030 10930 c0 -5 5 -10 10 -10 6 0 10 5 10 10 0 6 -4 10 -10 10 -5
0 -10 -4 -10 -10z"/>
<path d="M6716 9101 c-14 -15 -15 -24 -6 -40 19 -37 64 -18 76 32 6 25 4 27
-23 27 -17 0 -38 -9 -47 -19z"/>
<path d="M3270 7305 c-9 -11 -10 -19 -3 -26 8 -8 13 -5 18 11 9 28 2 35 -15
15z"/>
<path d="M6717 7149 c7 -7 15 -10 18 -7 3 3 -2 9 -12 12 -14 6 -15 5 -6 -5z"/>
<path d="M6750 7136 c0 -11 60 -36 88 -36 45 0 148 -35 258 -86 105 -49 223
-85 345 -104 244 -37 346 -52 449 -64 196 -24 230 -27 230 -17 0 11 -88 25
-245 41 -60 6 -137 18 -170 26 -33 8 -114 23 -180 34 -256 41 -382 76 -484
131 -23 12 -148 47 -206 58 -27 5 -58 13 -67 16 -10 4 -18 5 -18 1z"/>
<path d="M2370 6930 c-12 -8 -11 -10 7 -10 12 0 25 5 28 10 8 13 -15 13 -35 0z"/>
<path d="M1760 6829 c-19 -5 -73 -16 -119 -25 -91 -17 -287 -86 -311 -111 -13
-12 -9 -12 25 2 103 43 312 104 359 106 12 0 39 9 61 19 44 20 39 23 -15 9z"/>
<path d="M8200 6811 c0 -6 12 -13 28 -17 15 -3 33 -7 40 -10 6 -2 12 0 12 5 0
5 -10 11 -22 14 -13 2 -31 8 -40 12 -11 4 -18 3 -18 -4z"/>
<path d="M8395 6748 c38 -12 69 -25 125 -53 25 -12 59 -25 75 -29 43 -9 -95
60 -158 79 -56 16 -90 19 -42 3z"/>
<path d="M8710 6616 c0 -3 9 -10 20 -16 11 -6 20 -8 20 -6 0 3 -9 10 -20 16
-11 6 -20 8 -20 6z"/>
<path d="M8821 6533 c7 -20 158 -173 171 -173 7 0 -10 24 -38 53 -28 28 -62
63 -75 78 -33 35 -63 57 -58 42z"/>
<path d="M756 6201 c-4 -7 -5 -15 -2 -18 9 -9 19 4 14 18 -4 11 -6 11 -12 0z"/>
<path d="M1228 6184 c-2 -10 0 -52 4 -94 10 -116 9 -239 -3 -261 -8 -16 -7
-30 5 -60 9 -22 18 -83 21 -137 3 -53 8 -104 10 -113 3 -9 9 -47 14 -85 11
-89 -9 -165 -42 -156 -19 5 -20 2 -14 -76 4 -63 2 -82 -8 -82 -14 0 -29 32
-49 110 -8 30 -21 75 -29 100 -8 25 -18 63 -22 85 -4 22 -10 45 -15 50 -4 6
-17 51 -28 100 -12 50 -30 129 -41 177 -11 48 -31 111 -45 141 -14 30 -26 64
-26 75 0 12 -4 22 -10 22 -13 0 -12 -32 4 -109 14 -64 14 -65 -10 -83 -13 -11
-24 -25 -24 -31 0 -7 9 -1 19 12 10 13 23 21 29 17 13 -8 45 -114 37 -126 -6
-10 11 -86 32 -145 16 -44 51 -164 60 -207 4 -23 0 -30 -28 -47 -19 -12 -37
-21 -40 -21 -9 0 -39 75 -39 96 0 8 -7 22 -15 30 -25 25 -20 5 51 -221 31 -99
35 -144 18 -208 -7 -28 -11 -54 -8 -58 2 -4 18 -45 34 -91 32 -90 37 -127 18
-146 -7 -7 -18 -36 -24 -65 -6 -29 -14 -45 -17 -37 -43 116 -57 165 -62 215
-4 33 -17 110 -30 170 -35 166 -49 275 -37 287 7 7 6 20 -3 42 -19 46 -52 237
-60 346 -4 52 -13 107 -21 122 -15 30 -19 88 -5 88 5 0 16 -10 24 -22 l16 -23
0 26 c1 14 -8 52 -18 85 -11 32 -22 88 -26 124 -16 145 -23 158 -47 85 -10
-33 -21 -73 -24 -90 -3 -16 -9 -46 -14 -65 -36 -135 -43 -210 -43 -450 0 -352
33 -621 124 -988 39 -159 118 -388 162 -467 12 -22 34 -67 50 -100 16 -33 42
-85 57 -116 19 -37 30 -78 33 -120 3 -35 3 -54 0 -42 -2 12 -11 27 -19 33 -8
7 -14 19 -14 27 0 7 -7 16 -15 19 -8 4 -15 12 -15 20 0 8 -4 14 -8 14 -11 0
-59 95 -68 133 -3 15 -10 27 -15 27 -5 0 -9 8 -9 19 0 10 -10 38 -23 62 -31
61 -63 145 -77 204 -6 28 -22 77 -35 110 -13 33 -31 98 -40 145 -9 47 -22 101
-29 120 -25 65 -87 477 -94 625 -9 188 2 456 24 553 31 142 46 272 31 272 -5
0 -7 -9 -4 -20 3 -12 1 -18 -5 -14 -6 4 -15 0 -20 -7 -7 -10 -8 -9 -3 6 4 11
10 31 12 45 8 42 -32 -45 -71 -156 -20 -56 -39 -115 -42 -133 -4 -17 -11 -34
-15 -37 -5 -3 -9 -15 -9 -28 0 -12 -4 -26 -9 -31 -4 -6 -18 -41 -30 -80 -12
-38 -29 -90 -38 -115 -8 -25 -22 -71 -32 -102 -9 -31 -20 -60 -24 -64 -4 -4
-7 -19 -7 -32 0 -24 -12 -70 -31 -117 -8 -20 -19 -64 -25 -100 -7 -39 -33
-124 -44 -144 -6 -12 -9 -21 -6 -21 3 0 -3 -24 -14 -54 -17 -51 -40 -146 -45
-191 -1 -12 -5 -27 -9 -33 -22 -36 -42 -295 -26 -337 10 -26 2 -33 -16 -15 -7
7 -8 -11 -2 -57 5 -43 4 -86 -3 -118 -22 -102 -22 -142 -1 -163 33 -33 54
-113 43 -158 -5 -22 -14 -55 -19 -75 -6 -23 -6 -43 0 -54 6 -9 12 -65 14 -124
2 -58 9 -130 16 -159 7 -33 8 -56 2 -60 -25 -19 -34 -53 -24 -94 9 -36 13
-113 20 -383 0 -16 -2 -53 -6 -82 -3 -29 0 -76 7 -110 14 -66 13 -108 -3 -141
-9 -18 -9 -28 0 -42 15 -24 16 -136 1 -145 -6 -4 -7 -14 -4 -24 4 -9 9 -51 12
-95 2 -43 8 -88 12 -100 13 -36 6 -127 -11 -140 -22 -16 -30 -75 -17 -137 17
-85 19 -115 23 -254 1 -71 7 -139 13 -150 6 -11 14 -51 17 -90 17 -176 50
-381 65 -398 9 -11 14 -33 12 -55 -1 -27 5 -47 23 -72 33 -45 65 -110 66 -132
0 -9 43 -49 99 -91 55 -42 96 -79 93 -83 -4 -4 1 -4 12 0 13 4 17 2 13 -7 -3
-9 12 -13 62 -15 72 -3 96 -19 88 -60 -2 -12 0 -25 4 -28 5 -3 9 15 9 40 0 25
5 46 10 46 6 0 10 -9 10 -19 0 -31 14 -32 43 -5 14 13 34 24 43 24 14 0 12 -6
-11 -30 l-28 -29 26 -40 c31 -47 32 -51 12 -51 -8 0 -25 16 -39 36 -14 20 -27
31 -30 25 -4 -6 2 -21 13 -33 23 -24 27 -42 9 -36 -7 3 -19 -2 -26 -9 -11 -10
-42 -13 -126 -12 -61 2 -127 -1 -146 -5 -78 -15 -198 -39 -240 -46 -25 -5 -58
-14 -75 -20 -21 -9 -68 -10 -158 -6 l-127 7 0 -96 0 -95 130 0 c130 0 130 0
130 23 0 19 8 26 38 35 53 16 254 14 295 -2 18 -8 47 -11 65 -9 24 4 32 2 30
-8 -5 -22 150 -37 393 -38 l227 -1 11 63 c7 40 22 77 41 105 25 36 60 104 60
118 0 2 -9 4 -20 4 -29 0 -25 27 8 58 33 31 46 59 31 68 -6 3 -19 -2 -30 -12
-10 -9 -22 -14 -26 -10 -12 11 12 41 36 44 22 4 23 6 16 75 -12 114 -8 145 27
206 29 52 32 65 39 186 4 72 12 153 18 180 5 28 10 73 11 100 0 45 18 145 48
275 6 25 14 65 17 90 7 53 34 110 55 120 128 58 157 91 191 216 11 44 24 82
28 87 9 9 24 -21 46 -92 9 -29 27 -71 41 -92 32 -51 30 -82 -8 -157 -36 -70
-42 -77 -109 -127 -43 -31 -106 -122 -160 -228 -22 -42 -48 -152 -53 -217 -4
-50 24 -243 44 -305 5 -16 22 -67 37 -112 26 -80 26 -84 10 -118 -25 -53 -23
-85 7 -85 49 0 74 -80 40 -129 -13 -18 -24 -22 -51 -19 l-35 4 4 -148 3 -148
173 0 172 0 0 24 c0 30 16 42 35 26 11 -9 15 -9 15 -1 0 21 33 11 62 -19 l29
-30 197 2 197 3 3 33 c4 43 22 41 22 -3 l0 -35 405 0 c349 0 405 2 405 15 0 8
9 19 20 25 18 9 20 8 20 -15 0 -14 5 -25 10 -25 6 0 10 7 10 15 0 9 7 18 15
21 8 4 15 15 15 25 0 10 7 19 15 19 8 0 15 8 15 18 0 13 7 18 22 18 15 -1 27
7 33 22 8 18 18 22 55 22 25 0 50 4 56 10 11 11 74 -8 74 -22 0 -5 11 -18 25
-30 25 -21 34 -62 16 -72 -5 -3 -11 -15 -14 -26 -5 -20 -1 -20 251 -20 l257 1
-30 24 c-16 14 -36 25 -43 25 -8 0 -25 9 -39 20 -14 11 -33 20 -42 20 -21 0
-96 67 -80 72 6 2 13 16 14 32 4 37 4 36 69 43 l56 6 0 43 c0 39 3 44 23 44
28 0 47 17 47 43 0 11 11 28 25 39 14 11 25 26 25 34 0 8 4 14 9 14 5 0 12 14
16 30 11 52 65 68 65 19 0 -16 -4 -28 -8 -25 -4 2 -6 -10 -4 -28 3 -27 -1 -34
-23 -44 -14 -7 -37 -12 -51 -12 -22 0 -23 -2 -12 -14 8 -8 23 -15 33 -17 54
-11 85 -128 44 -165 -17 -16 -20 -26 -14 -63 l7 -44 -51 6 c-43 5 -52 3 -61
-12 -12 -23 2 -36 47 -46 19 -4 35 -14 38 -26 5 -16 16 -19 60 -19 l53 0 8 38
c10 50 18 242 14 332 -1 25 4 69 11 98 11 44 17 52 36 52 13 0 23 5 23 10 0
17 59 11 101 -11 23 -11 46 -18 52 -16 20 7 57 -11 57 -28 0 -12 -8 -16 -27
-14 -47 5 -133 -90 -133 -147 0 -37 -16 -53 -48 -48 -16 3 -26 -3 -34 -21 -10
-22 -8 -29 17 -55 16 -17 25 -30 19 -30 -5 0 0 -7 10 -15 25 -19 53 -19 72 0
9 8 25 15 36 15 18 0 20 -5 15 -33 -4 -29 -2 -33 17 -32 13 0 30 6 39 14 9 7
26 11 36 8 15 -4 24 3 36 29 8 18 27 39 42 46 15 7 31 27 37 43 9 23 16 29 34
27 18 -3 22 1 22 21 0 35 -10 57 -24 57 -19 0 -68 59 -64 78 2 10 15 18 33 20
17 2 35 8 41 13 30 24 169 5 202 -28 12 -12 26 -23 31 -23 7 0 51 -55 51 -65
0 -10 53 -65 64 -65 15 -1 48 -30 68 -61 15 -24 15 -27 -3 -40 -16 -11 -19
-26 -19 -90 l0 -77 246 -1 246 -2 -6 24 c-3 13 -10 57 -16 98 -14 97 -17 107
-41 114 -18 6 -20 12 -14 46 4 23 3 39 -3 39 -5 0 -7 11 -5 24 3 13 0 27 -6
30 -16 10 -13 26 4 26 17 0 21 35 5 45 -22 14 -10 35 20 35 28 0 30 3 30 36 0
20 -9 48 -20 64 -17 23 -18 32 -8 58 18 46 -4 82 -48 82 -35 0 -54 21 -54 59
0 16 -6 21 -25 21 -15 0 -25 6 -25 14 0 8 -11 27 -25 42 -14 15 -25 31 -25 35
0 22 -61 0 -87 -31 -16 -19 -17 -60 -2 -60 8 0 9 -13 5 -38 -6 -38 -5 -39 32
-50 37 -11 38 -13 37 -59 0 -46 -1 -48 -27 -46 -27 2 -37 -10 -19 -22 16 -9 5
-58 -15 -66 -28 -11 -93 -10 -115 1 -12 7 -19 21 -19 40 0 20 -6 31 -20 35
-24 8 -27 45 -3 45 14 0 14 2 -2 20 -10 11 -26 20 -35 20 -10 0 -20 9 -23 20
-4 16 -15 19 -73 22 l-68 3 -11 50 c-11 55 -38 70 -43 23 -2 -19 3 -30 19 -39
l23 -12 -21 -17 c-18 -14 -20 -24 -16 -64 3 -27 12 -50 19 -53 17 -6 18 -40 2
-46 -7 -3 -2 -6 12 -6 22 -1 23 -3 9 -16 -17 -17 -49 -10 -49 10 0 8 -9 17
-20 20 -11 3 -20 13 -20 21 0 8 -5 14 -11 14 -6 0 -23 9 -37 21 -16 12 -28 16
-30 10 -2 -6 -10 -11 -18 -11 -7 0 -11 6 -8 13 3 8 -5 18 -18 23 -31 13 -176
10 -191 -5 -6 -6 -29 -11 -52 -11 -22 0 -57 -9 -77 -20 -33 -18 -39 -18 -53
-4 -21 22 -22 134 0 134 18 0 20 16 3 24 -10 5 -10 7 -1 12 10 4 10 10 0 27
-7 12 -12 36 -11 52 1 17 4 146 7 288 4 142 10 263 14 270 4 6 10 76 13 154 6
120 10 146 26 164 14 16 26 19 51 14 30 -5 33 -4 33 19 0 37 56 141 86 161 60
39 78 -10 24 -66 -16 -18 -30 -37 -30 -43 0 -5 -14 -25 -32 -43 l-32 -33 30 0
c38 0 143 51 145 70 0 10 2 11 6 3 2 -8 22 -13 44 -13 38 0 39 1 33 27 -10 40
-14 44 -35 38 -13 -4 -21 -1 -25 10 -5 12 -9 13 -14 5 -5 -8 -9 -7 -13 4 -4
10 -1 16 8 16 7 0 17 9 20 20 9 30 47 64 86 80 49 19 56 28 35 43 -17 12 -17
14 -2 20 19 8 22 37 2 37 -7 0 -16 12 -19 28 -3 15 -8 34 -11 42 -7 17 28 61
62 79 22 12 22 14 8 36 -9 14 -16 34 -16 46 0 26 -26 48 -57 49 -13 0 -23 5
-23 10 0 6 -18 10 -40 10 -22 0 -40 -4 -40 -10 0 -5 -7 -10 -15 -10 -8 0 -15
9 -15 20 0 19 -31 43 -47 38 -5 -2 -19 7 -33 20 -14 13 -36 22 -56 22 -28 0
-34 5 -43 33 -13 39 -15 99 -7 192 3 39 8 205 11 369 3 164 10 317 15 340 19
87 23 98 36 103 16 6 19 33 4 33 -5 0 -10 6 -10 14 0 8 -4 16 -9 18 -5 2 -14
57 -20 123 -14 148 -21 185 -32 185 -5 0 -14 -12 -20 -27 -6 -16 -21 -37 -34
-48 -44 -37 -67 -94 -73 -181 -4 -63 -1 -89 12 -114 19 -39 20 -50 4 -87 -7
-15 -13 -41 -14 -58 -10 -117 -10 -128 4 -139 85 -66 98 -105 62 -176 -17 -34
-34 -130 -32 -182 0 -9 -5 -19 -13 -21 -14 -6 -45 -62 -45 -82 0 -13 -38 -51
-43 -44 -2 2 -11 20 -20 39 -12 27 -25 38 -58 48 -23 7 -44 11 -46 8 -2 -2 -6
-21 -7 -40 -5 -53 -41 -89 -84 -82 -50 8 -65 -1 -41 -25 10 -10 19 -29 20 -41
0 -13 3 -17 6 -10 2 6 16 12 29 12 20 0 23 -4 19 -22 -10 -47 -18 -105 -19
-155 0 -29 -7 -58 -13 -64 -11 -11 -13 -10 -13 0 0 7 -15 -1 -32 -19 -29 -28
-38 -31 -77 -27 -24 3 -46 9 -50 15 -3 5 -22 18 -41 29 -20 11 -36 29 -38 41
-2 12 -8 22 -13 22 -5 0 -9 6 -9 13 0 7 -9 18 -20 25 -15 9 -20 23 -20 52 0
22 3 40 8 40 4 0 24 15 45 34 32 28 37 37 31 60 -8 33 11 60 34 47 10 -6 22
-3 36 10 14 14 29 18 47 14 24 -5 26 -4 22 19 -3 16 -1 26 6 26 6 0 11 -4 11
-10 0 -5 11 -10 25 -10 15 0 25 6 25 14 0 18 43 66 59 66 8 0 7 11 -4 36 -18
44 -18 44 -2 44 16 0 40 41 36 61 -2 8 2 24 9 36 6 12 12 32 12 45 -1 79 14
195 27 210 13 14 12 17 -6 23 -14 4 -21 15 -21 31 0 14 -7 39 -16 56 -11 21
-14 43 -10 68 5 29 2 41 -14 55 -11 10 -20 29 -20 43 0 19 4 23 20 19 26 -7
47 27 30 48 -6 8 -18 11 -26 8 -22 -8 -84 26 -94 53 -7 18 -17 24 -39 24 -38
0 -62 -24 -58 -58 5 -43 29 -122 38 -128 5 -3 9 -17 9 -32 1 -15 10 -43 20
-62 10 -19 24 -45 31 -57 10 -18 9 -30 -3 -60 -9 -21 -17 -57 -17 -80 -2 -51
-26 -106 -34 -76 -3 10 -5 -1 -6 -24 0 -24 -6 -43 -11 -43 -6 0 -8 -15 -4 -40
6 -35 4 -40 -12 -40 -11 0 -24 12 -32 29 -7 16 -22 31 -34 35 -12 3 -19 8 -15
12 9 9 -19 60 -41 76 -11 7 -22 30 -26 51 -4 20 -11 37 -16 37 -5 0 -9 16 -8
35 1 19 -1 36 -3 38 -2 1 -27 14 -55 29 l-51 28 -27 -25 c-15 -14 -39 -25 -54
-25 -25 0 -28 -4 -30 -37 -1 -21 -12 -49 -23 -63 -11 -14 -22 -33 -26 -42 -3
-10 -9 -18 -14 -18 -5 0 -16 -18 -25 -40 -9 -22 -22 -40 -30 -40 -10 0 -14
-12 -14 -37 0 -43 -38 -123 -59 -123 -11 0 -11 -3 -2 -14 21 -25 9 -68 -24
-86 -21 -12 -30 -24 -30 -43 -1 -15 -6 -32 -13 -39 -7 -7 -12 -20 -12 -31 0
-10 -7 -25 -15 -33 -13 -14 -17 -12 -33 16 -46 86 -93 150 -133 183 -39 31
-53 36 -114 41 -95 8 -122 22 -130 66 -9 51 -10 83 -1 101 11 26 -117 81 -146
63 -7 -5 -22 -10 -33 -11 -26 -2 -155 -32 -164 -37 -4 -3 -23 -1 -43 3 -20 5
-42 5 -49 0 -8 -5 -9 -9 -4 -10 19 -1 -100 -38 -126 -38 -33 -1 -41 -9 -28
-32 7 -15 6 -19 -6 -19 -18 0 -19 -4 -4 -29 10 -14 7 -24 -11 -49 -28 -38 -37
-40 -49 -9 -5 12 -24 35 -41 51 -24 22 -28 31 -18 38 11 8 10 11 -2 15 -8 4
-28 19 -43 35 -16 15 -34 28 -40 28 -7 0 -31 9 -55 20 l-43 19 7 51 c6 42 4
50 -10 50 -22 0 -21 6 12 56 20 34 46 54 106 86 43 24 92 54 108 68 l30 26
-12 59 c-7 33 -21 72 -31 87 -11 15 -20 46 -21 72 -1 25 -6 46 -11 46 -4 0 -5
5 -2 10 29 46 -217 199 -400 249 -16 5 -43 14 -58 20 -16 6 -40 8 -53 5 -18
-5 -32 0 -47 14 -12 11 -34 24 -49 27 -38 10 -78 49 -78 78 0 19 -63 156 -100
217 -5 8 -11 27 -14 41 -3 14 -16 31 -30 37 -34 15 -68 78 -110 200 -28 84
-32 104 -20 109 8 3 14 11 14 19 0 8 5 14 10 14 6 0 10 6 10 14 0 7 18 40 39
72 61 91 65 133 10 104 -23 -13 -25 -30 -4 -30 8 0 15 -4 15 -10 0 -18 -54
-13 -56 5 0 6 -6 36 -13 68 -9 43 -16 57 -27 53 -8 -3 -15 0 -16 7 -1 7 -2
181 -3 387 0 349 -2 384 -23 500 -30 162 -64 261 -74 214z m-110 -994 c4 -26
-16 -70 -32 -70 -17 1 -47 47 -40 63 6 16 43 37 59 33 6 -1 12 -13 13 -26z
m48 -268 c-11 -11 -19 -13 -26 -6 -14 14 -3 42 18 46 23 5 28 -21 8 -40z m184
1 c0 -20 -3 -24 -11 -16 -7 7 -9 19 -6 27 10 24 17 19 17 -11z m-910 -1183 c0
-5 -2 -10 -4 -10 -3 0 -8 5 -11 10 -3 6 -1 10 4 10 6 0 11 -4 11 -10z m727
-132 c-3 -8 -6 -5 -6 6 -1 11 2 17 5 13 3 -3 4 -12 1 -19z m3459 -272 c-3 -11
-6 -28 -6 -37 0 -21 -22 -30 -41 -17 -11 8 -10 9 4 4 14 -5 17 1 17 39 0 36 3
43 16 38 10 -4 14 -13 10 -27z m-3740 -505 c9 -23 13 -49 9 -73 -5 -25 -2 -44
10 -62 9 -13 15 -35 13 -48 -3 -21 -5 -20 -21 11 -9 19 -17 43 -17 54 0 11
-12 44 -26 73 -16 32 -23 61 -19 73 9 29 33 16 51 -28z m74 -374 c0 -13 5 -28
10 -33 14 -14 18 -83 5 -84 -5 0 -12 10 -13 22 -2 13 -8 27 -13 33 -12 12 -12
85 1 85 6 0 10 -10 10 -23z m2818 -22 c68 17 107 17 124 -2 21 -24 13 -72 -15
-82 -31 -12 -98 -7 -131 10 -42 20 -69 60 -61 91 l7 26 24 -25 c20 -20 31 -24
52 -18z m942 -100 c0 -8 5 -15 11 -15 6 0 25 -11 41 -26 17 -14 37 -23 45 -20
18 7 35 -2 28 -14 -3 -5 -15 -5 -28 -1 -18 7 -27 1 -53 -33 -17 -23 -41 -60
-53 -83 -23 -46 -49 -55 -85 -28 -16 12 -18 25 -14 91 3 65 7 79 25 91 12 8
32 23 44 34 27 23 39 24 39 4z m-3714 -40 c4 -14 3 -29 0 -33 -9 -8 -26 18
-26 41 0 26 19 20 26 -8z m2594 -15 c14 -22 32 -40 41 -40 9 0 20 -7 23 -16 3
-8 10 -12 16 -9 6 3 26 1 45 -6 31 -12 41 -25 36 -53 -1 -4 3 -14 9 -21 17
-20 -7 -51 -52 -66 -21 -7 -38 -18 -38 -26 0 -7 -6 -16 -14 -19 -8 -3 -16 -14
-19 -25 -5 -19 -47 -28 -47 -9 0 13 -37 13 -45 0 -4 -6 -14 -5 -28 1 -18 8
-23 18 -22 48 0 35 2 38 30 39 16 0 31 6 34 13 2 6 12 20 22 30 14 14 17 27
13 47 -9 38 -40 96 -58 111 -23 20 -20 41 7 41 16 0 30 -12 47 -40z m-2560
-81 c0 -11 -4 -17 -10 -14 -5 3 -10 13 -10 21 0 8 5 14 10 14 6 0 10 -9 10
-21z m2196 -124 c-5 -49 -12 -71 -31 -91 -28 -30 -31 -40 -12 -48 10 -5 10 -7
0 -12 -7 -3 -13 -13 -13 -23 0 -9 -5 -22 -10 -27 -12 -12 -20 -43 -26 -99 -5
-50 -22 -116 -23 -92 -1 9 -5 17 -10 17 -5 0 -9 -27 -9 -61 0 -39 -5 -66 -15
-77 -8 -9 -17 -29 -20 -43 -4 -14 -18 -42 -32 -63 -14 -21 -25 -51 -25 -70 0
-21 -6 -36 -15 -40 -8 -3 -15 -14 -15 -25 0 -11 -4 -23 -10 -26 -5 -3 -10 -17
-10 -30 0 -13 -5 -27 -11 -31 -6 -3 -17 -22 -25 -41 -8 -18 -21 -36 -29 -40
-18 -6 -20 -30 -3 -35 19 -7 0 -55 -24 -62 -18 -5 -20 -8 -9 -15 10 -6 12 -19
7 -45 -4 -22 -3 -36 3 -36 6 0 -1 -11 -14 -24 -13 -13 -27 -41 -31 -62 -4 -22
-19 -57 -35 -80 -15 -22 -31 -58 -34 -80 -4 -21 -13 -46 -21 -54 -7 -8 -14
-33 -16 -54 -2 -22 -8 -41 -15 -43 -25 -9 -13 125 19 222 17 50 34 92 38 95
20 13 45 135 41 198 -2 23 2 42 7 42 6 0 12 19 15 43 6 52 31 121 59 159 23
33 31 60 58 206 16 86 24 109 50 139 17 19 37 47 43 62 7 14 17 31 24 36 7 6
20 44 29 85 17 82 55 178 91 226 13 17 23 38 23 47 0 11 8 17 21 17 21 0 21
-3 15 -65z m-1145 -168 c-25 -26 -28 -6 -4 23 11 12 19 16 22 9 2 -6 -6 -21
-18 -32z m2424 -138 c12 -12 22 -43 25 -77 6 -48 4 -59 -12 -70 -10 -7 -18
-20 -18 -28 0 -15 -96 -114 -110 -114 -4 0 -12 -21 -17 -47 -15 -64 -4 -77 44
-52 21 11 43 19 50 19 7 0 13 6 14 13 0 6 5 2 11 -10 6 -13 15 -23 20 -23 17
0 8 -91 -14 -132 -17 -30 -20 -42 -10 -45 22 -9 12 -58 -23 -113 -29 -44 -35
-61 -30 -87 8 -42 -5 -64 -49 -88 -19 -11 -40 -31 -46 -46 -16 -37 -51 -55
-79 -39 -12 6 -29 10 -39 9 -9 -2 -26 2 -37 8 -11 5 -60 13 -110 16 -52 3
-103 12 -120 21 -16 9 -48 16 -70 16 -79 1 -133 30 -179 97 -16 24 -32 40 -37
37 -5 -3 -6 2 -3 10 4 10 -9 18 -49 30 -30 9 -61 16 -69 16 -7 0 -21 7 -31 15
-18 13 -18 14 3 25 23 12 64 4 55 -11 -4 -5 -1 -9 4 -9 6 0 11 7 11 15 0 17
66 22 72 5 2 -6 14 8 28 30 14 22 32 40 40 40 9 0 26 7 38 16 12 8 22 12 22 9
0 -3 9 -1 20 5 27 14 25 28 -4 36 -13 3 -26 14 -29 24 -3 11 -15 21 -28 24
-77 16 -79 17 -79 38 0 38 28 58 82 58 26 0 57 5 67 12 17 10 17 13 3 38 -17
29 -9 97 8 69 8 -12 16 -11 52 8 24 13 70 27 103 31 68 10 88 15 95 22 17 17
57 31 107 36 66 7 110 30 137 72 10 15 36 38 57 50 22 13 39 27 39 32 0 19 66
11 85 -11z m-3819 -279 c28 0 43 -4 39 -10 -7 -11 -74 -14 -99 -4 -9 3 -16 11
-16 16 0 6 7 7 16 4 9 -3 36 -6 60 -6z m2878 -653 c14 -11 29 -11 62 -4 33 8
69 6 142 -5 53 -9 159 -16 236 -17 158 0 186 -10 186 -61 0 -17 -4 -30 -10
-30 -5 0 3 -17 18 -39 15 -21 31 -36 36 -33 5 3 6 0 2 -6 -4 -6 -19 -9 -35 -6
-18 4 -33 0 -43 -9 -8 -9 -31 -20 -49 -24 -27 -7 -35 -15 -37 -36 -3 -25 -47
-67 -71 -67 -6 0 -11 -3 -11 -7 0 -12 -98 -15 -105 -3 -3 5 -20 17 -37 26 -28
14 -36 14 -99 -1 -88 -22 -100 -35 -63 -74 19 -20 41 -31 73 -36 25 -4 59 -14
74 -22 16 -8 30 -13 30 -11 24 48 42 58 50 28 3 -13 0 -20 -9 -20 -26 0 -14
-38 21 -71 41 -39 43 -49 13 -49 -13 0 -30 -5 -38 -10 -12 -8 -11 -10 8 -10
12 0 22 -4 22 -10 0 -17 42 -11 56 7 12 16 13 16 8 1 -3 -9 -1 -25 5 -35 6
-12 6 -25 0 -34 -6 -10 -9 -10 -9 -1 0 6 -9 12 -19 12 -11 0 -26 6 -33 14 -22
21 -75 46 -100 46 -33 0 -89 56 -116 116 -25 53 -62 77 -101 67 -27 -7 -39 1
-123 83 -54 52 -83 73 -109 78 -40 7 -89 40 -89 59 0 7 -7 25 -15 40 -17 33
-10 53 33 99 23 26 27 27 43 12 13 -11 22 -13 36 -5 30 17 124 57 144 60 3 1
13 -5 23 -12z m-644 -26 c0 -5 -7 -11 -15 -15 -9 -3 -15 0 -15 9 0 8 7 15 15
15 8 0 15 -4 15 -9z m-501 -24 c6 -8 8 -17 4 -20 -12 -13 -28 -7 -41 13 -11
17 -10 20 7 20 10 0 24 -6 30 -13z m-672 -29 c-3 -8 -6 -5 -6 6 -1 11 2 17 5
13 3 -3 4 -12 1 -19z m53 -36 c0 -5 17 -27 38 -49 20 -22 52 -57 70 -77 18
-20 35 -36 38 -36 8 0 43 -43 44 -54 0 -5 7 -17 16 -27 26 -28 9 -37 -43 -24
-36 9 -49 17 -51 33 -2 11 -10 26 -18 32 -8 7 -14 18 -14 25 0 6 -19 32 -42
57 -52 55 -88 103 -88 118 0 5 11 10 25 10 14 0 25 -4 25 -8z m1444 -18 c19
-49 -8 -72 -29 -26 -5 12 -13 22 -17 22 -5 0 -8 5 -8 10 0 16 47 11 54 -6z
m-574 -316 c-6 -40 -17 -80 -25 -88 -8 -9 -15 -25 -15 -36 0 -13 -7 -20 -21
-21 -17 -2 -20 2 -15 28 3 16 9 43 12 59 3 17 10 30 15 30 6 0 7 4 4 10 -3 5
1 22 9 37 9 16 21 42 28 58 17 46 22 8 8 -77z m-625 82 c3 -5 1 -10 -4 -10 -6
0 -11 5 -11 10 0 6 2 10 4 10 3 0 8 -4 11 -10z m-37 -51 c7 -18 9 -17 36 6 16
13 33 22 37 19 13 -8 11 -152 -2 -160 -16 -10 -29 15 -29 57 0 23 -6 39 -15
43 -11 4 -15 -2 -15 -22 0 -44 -26 -72 -66 -72 -31 0 -37 4 -50 36 -18 43 -11
88 17 107 25 18 79 9 87 -14z m27 12 c-3 -6 -11 -8 -17 -5 -6 4 -5 9 3 15 16
10 23 4 14 -10z m3475 9 c0 -5 -4 -10 -10 -10 -5 0 -10 5 -10 10 0 6 5 10 10
10 6 0 10 -4 10 -10z m-4306 -16 c9 -8 16 -22 16 -30 0 -16 -47 -64 -61 -64
-5 0 -9 -4 -9 -10 0 -6 3 -9 8 -9 4 1 20 1 35 0 49 -2 18 -21 -34 -21 -36 0
-49 4 -49 15 0 14 38 55 51 55 16 0 38 31 33 45 -8 19 -43 19 -50 0 -7 -18
-24 -20 -24 -2 0 35 56 50 84 21z m131 0 c11 -12 15 -30 13 -62 -2 -39 -8 -49
-30 -62 -33 -18 -56 -8 -75 32 -14 28 -3 86 19 100 21 13 55 9 73 -8z m504
-41 c0 -32 -2 -65 -5 -75 -11 -35 -24 -17 -24 32 0 38 -4 50 -15 50 -20 0 -19
9 3 31 30 31 39 22 41 -38z m371 -23 c0 -79 -5 -91 -27 -69 -13 13 -43 5 -43
-11 0 -6 5 -8 12 -4 8 5 9 2 4 -11 -5 -15 -4 -16 9 -5 13 11 14 10 9 -4 -7
-17 -22 -20 -42 -7 -9 5 -11 19 -7 42 6 32 5 33 -9 14 -14 -19 -15 -16 -14 40
0 33 3 50 5 37 2 -12 9 -20 14 -17 5 4 9 -4 10 -17 0 -13 3 -17 6 -10 2 6 12
12 21 12 15 0 15 -2 2 -10 -13 -9 -13 -10 0 -10 13 0 13 -1 0 -10 -13 -8 -12
-10 3 -10 13 0 17 9 17 40 0 29 -4 40 -15 40 -8 0 -15 5 -15 10 0 6 7 10 15
10 9 0 18 7 21 15 14 36 24 9 24 -65z m120 65 c7 -8 10 -25 7 -37 -4 -12 -1
-28 4 -34 16 -20 1 -53 -28 -60 -41 -11 -77 7 -81 39 -2 15 2 27 8 27 6 0 8
10 4 25 -4 15 -1 32 6 40 16 19 64 19 80 0z m167 3 c14 -17 14 -110 1 -125
-15 -18 -63 -16 -82 3 -18 18 -21 34 -6 34 6 0 10 -4 10 -9 0 -16 40 -23 56
-10 16 13 2 39 -22 39 -21 0 -17 17 6 23 11 3 20 10 20 16 0 20 -30 24 -49 7
-24 -21 -38 -4 -15 18 18 19 68 21 81 4z m83 -64 c0 -56 -3 -75 -12 -71 -14 4
-15 8 -17 62 -1 24 -6 35 -16 35 -8 0 -15 5 -15 10 0 6 6 10 14 10 8 0 16 7
20 15 14 38 26 10 26 -61z m3030 57 c0 -20 -18 -31 -52 -31 -26 0 -19 21 13
37 33 17 39 16 39 -6z m-180 -6 c0 -8 -4 -15 -10 -15 -5 0 -10 7 -10 15 0 8 5
15 10 15 6 0 10 -7 10 -15z m274 -4 c3 -5 -5 -11 -18 -13 -17 -4 -23 -1 -19 9
6 15 29 18 37 4z m-3324 -47 c0 -8 -4 -12 -10 -9 -5 3 -10 10 -10 16 0 5 5 9
10 9 6 0 10 -7 10 -16z m-495 -53 c7 -12 -12 -24 -25 -16 -11 7 -4 25 10 25 5
0 11 -4 15 -9z m497 -6 c0 -5 -5 -11 -11 -13 -6 -2 -11 4 -11 13 0 9 5 15 11
13 6 -2 11 -8 11 -13z m1071 -222 c-7 -2 -19 -2 -25 0 -7 3 -2 5 12 5 14 0 19
-2 13 -5z m2294 -25 c-3 -8 -6 -5 -6 6 -1 11 2 17 5 13 3 -3 4 -12 1 -19z"/>
<path d="M1979 467 c7 -7 14 -8 21 -1 6 6 2 10 -12 11 -16 2 -18 -1 -9 -10z"/>
<path d="M1945 397 c-27 -41 8 -103 39 -71 23 22 21 71 -4 84 -16 8 -22 6 -35
-13z"/>
<path d="M1274 396 c-9 -36 -1 -68 19 -80 15 -9 21 -7 33 8 17 24 18 68 2 84
-20 20 -47 14 -54 -12z"/>
<path d="M2274 409 c-6 -10 11 -29 26 -29 3 0 11 4 19 9 17 11 5 31 -19 31
-10 0 -22 -5 -26 -11z"/>
<path d="M2274 345 c-4 -9 -2 -21 4 -27 16 -16 47 -5 47 17 0 26 -42 34 -51
10z"/>
<path d="M9155 5938 c-4 -39 0 -72 15 -123 11 -38 20 -88 20 -110 0 -48 41
-225 52 -225 11 0 10 170 -3 270 -15 123 -49 240 -70 240 -4 0 -10 -24 -14
-52z"/>
<path d="M8787 5933 c-3 -5 -15 -78 -26 -162 -12 -85 -25 -170 -30 -190 -6
-20 -24 -126 -41 -236 -17 -110 -37 -232 -45 -272 -8 -40 -15 -94 -14 -120 l1
-48 23 70 c44 134 60 220 90 500 9 77 23 172 32 210 20 92 33 226 24 244 -5 7
-11 9 -14 4z"/>
<path d="M870 5734 c1 -16 7 -47 15 -69 8 -22 15 -47 15 -55 0 -8 5 -32 11
-53 10 -36 12 -37 24 -20 10 13 11 21 2 32 -18 21 -37 83 -37 121 0 19 -7 44
-15 54 -14 19 -15 18 -15 -10z"/>
<path d="M8520 5646 c0 -25 5 -46 10 -46 6 0 10 18 10 39 0 22 -4 43 -10 46
-6 4 -10 -12 -10 -39z"/>
<path d="M952 5420 c0 -14 2 -19 5 -12 2 6 2 18 0 25 -3 6 -5 1 -5 -13z"/>
<path d="M8487 5353 c-2 -5 -5 -50 -6 -102 -1 -52 -6 -102 -11 -110 -4 -9 -8
-79 -9 -156 -1 -78 -5 -143 -11 -149 -6 -6 -10 -67 -10 -140 0 -175 30 -343
71 -395 24 -30 24 -72 0 -102 l-18 -23 -12 22 c-9 17 -18 21 -36 16 -27 -7
-26 -12 -45 126 -7 47 -17 112 -22 145 -6 33 -12 101 -13 152 -5 167 -28 338
-45 328 -4 -3 -6 3 -4 12 2 10 -9 33 -26 52 -17 19 -28 41 -25 49 3 8 0 20 -5
28 -6 7 -16 43 -21 79 -9 69 -23 105 -39 105 -5 0 -21 -11 -37 -24 l-27 -24
12 -72 c7 -40 18 -139 24 -221 11 -134 10 -152 -5 -184 -21 -44 -21 -45 1 -45
38 0 54 -84 27 -136 -8 -16 -15 -37 -15 -46 0 -10 -4 -18 -10 -18 -5 0 -10 5
-10 10 0 17 -19 11 -30 -10 -12 -22 1 -268 21 -400 23 -155 66 -315 94 -350 6
-8 26 -50 45 -93 22 -51 46 -89 71 -112 58 -52 50 -75 -26 -75 -19 0 -36 -4
-39 -8 -11 -18 6 -48 40 -70 26 -17 34 -29 34 -52 0 -20 -5 -30 -15 -30 -9 0
-18 -7 -21 -15 -4 -8 -16 -15 -29 -15 -17 0 -27 11 -44 51 -11 29 -21 62 -21
74 0 26 -24 78 -57 121 -13 18 -29 58 -36 90 -7 33 -22 74 -34 92 -14 23 -22
58 -27 118 -7 89 -30 154 -53 154 -7 0 -21 -9 -30 -20 -23 -26 -39 -25 -65 5
-15 17 -32 25 -55 25 -44 0 -50 -19 -24 -73 26 -53 26 -58 1 -109 -11 -23 -20
-52 -20 -65 0 -14 -4 -21 -10 -18 -6 4 -8 10 -5 15 3 5 -4 15 -15 22 -34 20
-130 227 -130 279 0 11 -4 19 -9 19 -5 0 -15 16 -21 35 -12 37 -17 40 -40 25
-12 -7 -12 -12 -2 -22 6 -6 12 -23 12 -35 0 -13 9 -61 19 -106 11 -45 25 -116
31 -157 7 -41 18 -107 26 -147 8 -39 11 -79 8 -87 -10 -27 15 -46 61 -46 43 0
84 28 71 49 -4 5 6 25 22 42 l29 33 13 -23 c6 -13 13 -40 14 -60 1 -36 1 -36
41 -34 52 4 149 -29 153 -51 2 -9 -10 -31 -27 -48 -24 -25 -34 -29 -43 -20
-37 37 -58 -20 -65 -185 l-6 -122 28 2 c22 2 32 12 50 47 13 25 26 67 29 94 3
27 8 51 12 55 8 7 -3 -83 -16 -144 -5 -22 -13 -65 -17 -95 -7 -51 -11 -56 -45
-73 -21 -9 -38 -22 -38 -28 0 -5 -4 -7 -10 -4 -5 3 -10 20 -10 38 0 29 -1 30
-15 11 -8 -10 -15 -31 -15 -45 0 -28 -27 -59 -52 -59 -31 0 -30 -32 2 -60 16
-15 30 -35 30 -44 0 -13 5 -16 19 -11 14 4 25 -2 38 -22 32 -45 32 -54 21
-217 -10 -139 -9 -157 5 -180 10 -14 17 -34 17 -46 0 -11 5 -20 10 -20 14 0
12 -42 -4 -62 -7 -10 -23 -18 -34 -18 -23 0 -37 -16 -37 -42 0 -10 -4 -18 -10
-19 -15 -3 -34 40 -40 93 -5 42 -9 48 -29 48 -15 0 -27 9 -36 27 -12 26 -13
27 -21 8 -4 -11 -8 -32 -8 -47 -1 -16 -12 -36 -32 -52 -30 -25 -56 -35 -45
-17 4 5 1 11 -5 13 -7 2 -18 26 -26 54 -7 27 -19 65 -24 84 -6 19 -14 62 -18
95 -3 33 -14 75 -24 94 -9 19 -17 40 -17 47 0 7 -5 14 -11 16 -5 2 -13 24 -16
48 -3 25 -11 50 -17 55 -7 6 -16 19 -21 30 -7 18 -9 18 -12 3 -2 -10 3 -33 12
-53 13 -25 15 -47 10 -80 -3 -25 -10 -43 -16 -40 -5 4 -9 1 -9 -4 0 -6 -18
-11 -40 -11 -29 0 -40 -4 -40 -15 0 -8 7 -15 16 -15 23 0 43 -30 44 -64 0 -26
-2 -28 -27 -21 -16 3 -29 11 -31 16 -2 5 -19 9 -38 9 -19 0 -48 7 -63 15 -22
11 -32 12 -45 2 -14 -10 -15 -20 -6 -72 17 -93 31 -124 67 -146 26 -16 32 -27
32 -52 -1 -18 6 -67 15 -110 9 -42 15 -81 12 -86 -7 -11 23 -51 39 -51 7 0 32
-18 54 -39 23 -22 51 -41 64 -43 17 -2 22 -10 24 -34 1 -34 19 -74 32 -74 4 0
16 35 27 78 l18 77 13 -113 c19 -151 62 -263 135 -348 29 -35 56 -63 61 -63
17 -2 117 -117 118 -136 0 -17 2 -16 10 5 6 14 10 72 9 130 -1 58 1 175 5 261
l8 156 36 -13 c20 -7 52 -15 72 -19 20 -3 46 -16 58 -29 23 -24 23 -30 27
-296 2 -149 8 -288 13 -308 13 -47 16 -63 46 -200 13 -63 31 -124 39 -135 9
-12 23 -31 30 -42 8 -11 21 -56 30 -100 25 -138 46 -229 58 -252 13 -25 5
-108 -16 -168 -15 -43 -9 -143 15 -242 l13 -53 419 0 c321 0 421 3 431 13 15
14 63 144 56 150 -3 3 -52 7 -110 11 -57 4 -106 9 -108 11 -10 9 80 44 152 59
43 9 80 16 81 16 9 0 64 92 75 124 18 55 10 65 -49 59 -40 -4 -51 -2 -51 10 0
16 29 27 72 27 34 0 88 45 88 73 0 12 11 58 25 102 24 78 34 172 21 194 -10
16 -36 14 -36 -3 0 -7 -8 -16 -17 -19 -10 -4 -35 -13 -55 -20 -64 -25 -238 0
-315 43 -17 10 -55 21 -85 25 -61 8 -93 27 -85 50 7 17 28 19 75 6 35 -10 156
5 247 32 28 8 95 18 150 22 171 12 165 -1 165 370 0 183 -4 285 -10 285 -5 0
-19 -9 -30 -20 -22 -22 -45 -26 -55 -9 -4 5 -12 8 -18 6 -7 -2 -20 2 -29 10
-16 14 -15 18 5 56 22 44 51 77 66 77 22 0 22 172 0 186 -5 3 -9 -1 -9 -8 0
-7 -12 -22 -26 -33 -14 -11 -36 -30 -49 -43 -12 -12 -25 -22 -29 -22 -11 0
-55 -54 -56 -67 0 -7 6 -13 13 -13 12 0 -12 -16 -63 -42 -14 -7 -27 -15 -30
-19 -3 -3 -26 -8 -52 -11 -37 -4 -48 -2 -53 11 -6 14 -8 14 -21 -3 -14 -19
-14 -19 -14 2 0 13 6 22 15 22 8 0 17 11 21 25 3 14 10 25 15 25 5 0 9 13 9
28 0 16 9 37 20 47 18 16 53 101 56 135 2 33 5 37 29 48 25 12 33 36 15 47 -5
3 -18 1 -29 -5 -13 -7 -22 -7 -26 0 -3 5 3 10 13 10 11 0 25 7 32 15 7 8 23
15 37 15 30 0 75 47 71 74 -2 15 -12 22 -30 24 -16 2 -28 9 -28 18 0 8 -6 14
-13 14 -7 0 -13 12 -12 28 0 24 -3 27 -27 24 -20 -2 -28 2 -28 13 0 8 -5 15
-11 15 -5 0 -7 5 -4 10 4 6 1 17 -5 25 -10 12 -8 16 11 24 13 5 33 19 44 31
17 19 28 21 85 19 77 -3 117 6 122 29 7 30 -2 47 -42 71 -21 14 -37 28 -34 33
3 4 -2 5 -10 2 -9 -3 -16 -1 -16 5 0 6 -8 11 -19 11 -10 0 -25 7 -32 16 -10
12 -25 15 -62 11 -37 -3 -54 0 -66 12 -18 17 -77 41 -104 41 -24 0 -21 19 9
46 28 27 46 31 38 10 -9 -23 34 -31 56 -11 11 10 40 20 66 23 68 7 112 58 86
100 -10 15 -80 52 -99 52 -7 0 -13 -9 -13 -20 0 -31 -20 -23 -27 10 -3 17 -15
36 -26 42 -17 9 -24 7 -38 -11 -21 -25 -44 -27 -53 -4 -6 15 -8 15 -16 3 -8
-12 -10 -11 -11 5 -3 53 23 115 49 115 7 0 20 7 28 15 14 13 14 15 0 15 -18 0
-22 45 -6 55 8 5 8 11 0 20 -8 9 -7 33 4 87 8 40 15 64 16 53 1 -11 11 23 21
75 11 52 29 107 39 122 11 15 20 30 20 34 0 13 64 139 73 142 4 2 7 10 7 18 0
8 23 38 51 67 28 28 57 65 66 81 13 25 13 30 0 43 -13 13 -21 13 -53 3 -22 -7
-45 -19 -51 -28 -12 -14 -13 -14 -13 1 0 14 -7 11 -30 -13 -18 -19 -30 -41
-30 -58 0 -54 -49 -172 -71 -172 -6 0 -9 6 -6 14 3 8 -1 22 -8 33 -19 24 -18
64 1 113 12 30 14 47 7 63 -9 20 -12 18 -36 -29 -14 -28 -34 -54 -44 -58 -10
-3 -24 -9 -32 -12 -11 -6 -13 2 -8 41 4 26 14 62 22 78 8 17 15 39 15 49 0 11
14 51 30 90 17 38 30 76 30 84 0 8 4 22 9 32 5 9 20 58 34 107 22 83 32 117
57 215 11 43 2 117 -15 124 -15 5 -52 -31 -42 -40 3 -4 -5 -21 -18 -39 -15
-19 -25 -45 -25 -65 0 -29 -14 -65 -83 -209 -37 -75 -128 -137 -143 -96 -7 16
14 85 25 85 7 0 19 28 51 110 7 19 16 73 20 120 5 47 15 130 25 185 9 55 18
141 20 191 2 51 8 109 14 130 5 22 13 68 16 102 4 35 13 76 21 90 16 30 19
148 5 184 -5 13 -21 30 -36 38 -38 20 -57 4 -73 -61 -7 -30 -16 -72 -22 -94
-5 -22 -16 -72 -24 -112 -8 -39 -19 -79 -24 -90 -5 -10 -22 -58 -37 -108 -28
-89 -90 -201 -133 -239 -12 -11 -22 -26 -22 -33 0 -17 -63 -115 -85 -133 -8
-7 -15 -18 -15 -24 0 -13 -51 -66 -63 -66 -14 0 -6 40 28 131 19 52 35 106 35
121 0 15 5 30 10 33 19 12 10 22 -30 34 -21 6 -46 22 -55 34 -12 18 -17 19
-24 8 -9 -13 -26 165 -21 219 5 56 -1 190 -7 190 -9 0 -49 -82 -57 -115 -3
-11 -3 -1 0 23 2 23 0 51 -5 61 -13 24 -15 67 -7 179 5 59 4 92 -3 92 -5 0
-12 -3 -14 -7z m603 -1824 c0 -5 -7 -9 -15 -9 -9 0 -12 6 -9 15 6 15 24 11 24
-6z m-90 -326 c-10 -26 -23 -49 -29 -51 -6 -2 -11 -10 -11 -18 0 -8 -4 -14 -9
-14 -18 0 2 75 27 103 37 39 43 34 22 -20z m105 -543 c-4 -13 -2 -20 7 -21 7
0 -5 -7 -26 -15 -44 -16 -56 -8 -48 32 4 20 10 24 39 24 30 0 34 -3 28 -20z
m-1585 -115 c0 -8 -4 -15 -10 -15 -5 0 -10 7 -10 15 0 8 5 15 10 15 6 0 10 -7
10 -15z m1546 -441 c-4 -14 -2 -24 4 -24 18 0 2 -17 -20 -23 -44 -11 -70 56
-27 72 33 12 50 2 43 -25z m289 -613 c69 -13 79 -15 85 -22 3 -3 22 -13 43
-22 21 -11 37 -25 37 -35 0 -9 9 -23 20 -30 12 -7 18 -18 14 -23 -4 -6 0 -15
7 -21 11 -7 10 -12 -8 -25 -13 -8 -23 -24 -23 -34 0 -21 -36 -49 -65 -49 -11
0 -33 7 -50 16 -35 19 -40 20 -166 38 -108 16 -120 21 -166 69 -28 29 -32 38
-26 70 7 44 19 55 64 61 19 3 45 9 59 15 25 11 84 8 175 -8z m-66 -810 c28
-18 -30 -54 -124 -76 -33 -7 -63 -11 -68 -8 -10 6 11 33 26 33 6 0 18 7 26 15
17 15 85 42 111 44 8 0 21 -3 29 -8z"/>
<path d="M4728 5207 c-5 -10 -8 -42 -7 -70 0 -45 2 -48 10 -27 6 13 9 45 7 70
-2 31 -5 39 -10 27z"/>
<path d="M8581 5154 c0 -11 3 -14 6 -6 3 7 2 16 -1 19 -3 4 -6 -2 -5 -13z"/>
<path d="M4714 5058 c-4 -6 -15 -115 -25 -241 -19 -243 -24 -272 -39 -247 -14
23 -25 3 -12 -23 23 -45 33 -104 22 -131 -5 -15 -9 -30 -9 -34 3 -20 -3 -32
-16 -32 -7 0 -18 -6 -22 -12 -10 -16 -53 -41 -53 -31 0 5 -12 13 -26 20 l-27
12 7 -46 c3 -26 12 -50 19 -55 8 -5 11 -31 9 -83 -2 -46 1 -75 7 -75 6 0 8 -7
5 -15 -4 -9 7 -22 30 -36 36 -21 66 -63 66 -94 0 -24 14 -18 27 13 14 34 24
161 28 373 5 203 12 431 20 612 3 75 4 137 1 137 -3 0 -8 -5 -12 -12z"/>
<path d="M8725 4870 c3 -5 10 -10 16 -10 5 0 9 5 9 10 0 6 -7 10 -16 10 -8 0
-12 -4 -9 -10z"/>
<path d="M4535 4775 c31 -25 46 -27 53 -7 2 7 -3 12 -12 12 -9 0 -16 5 -16 10
0 6 -12 10 -27 10 l-28 0 30 -25z"/>
<path d="M8652 4782 c-6 -2 -12 -12 -12 -23 0 -16 7 -19 40 -19 26 0 40 5 40
13 0 14 -49 36 -68 29z"/>
<path d="M4993 4051 c-54 -17 -93 -45 -93 -68 0 -18 -21 -55 -40 -69 -11 -9
-20 -9 -35 -1 -11 6 -21 10 -22 9 -2 -1 -8 -2 -14 -2 -6 0 8 18 30 39 61 58
49 114 -17 80 -76 -39 -117 -89 -73 -89 21 0 71 -53 71 -76 0 -21 27 -72 62
-116 25 -31 36 -38 66 -38 19 0 55 9 78 21 46 22 114 90 114 114 0 21 54 19
93 -2 44 -25 66 -53 67 -85 0 -17 7 -29 19 -33 22 -7 61 13 61 31 0 6 10 10
23 10 49 -2 25 56 -60 148 -10 11 -25 31 -34 44 -24 34 -52 47 -194 85 -43 12
-57 11 -102 -2z"/>
<path d="M5960 3660 c-8 -5 -13 -24 -13 -47 1 -21 1 -63 1 -93 -1 -140 -3
-160 -15 -160 -19 0 -16 -24 8 -54 18 -22 18 -26 4 -26 -9 0 -15 -6 -12 -12 2
-7 10 -12 16 -10 12 2 14 -20 5 -67 -5 -22 -11 -30 -20 -27 -11 4 -14 -7 -14
-48 0 -46 -3 -54 -25 -66 -23 -12 -24 -15 -11 -34 34 -47 55 -97 58 -133 3
-32 0 -38 -18 -39 -12 -1 -26 -4 -33 -8 -18 -11 -13 -51 9 -71 11 -10 20 -24
20 -32 0 -7 3 -13 8 -13 14 0 7 -203 -8 -230 -18 -32 -19 -38 -2 -79 12 -29
11 -35 -4 -52 -9 -10 -14 -25 -10 -34 6 -16 53 -38 65 -30 5 2 9 61 10 131 0
69 4 130 6 135 3 5 6 61 7 126 0 86 3 111 10 93 5 -14 10 -38 10 -53 1 -21 18
-47 62 -93 54 -57 61 -69 62 -106 0 -23 6 -44 12 -46 7 -2 12 -15 12 -28 0
-14 7 -41 15 -60 22 -53 30 -131 15 -149 -10 -12 -5 -22 24 -58 19 -24 42 -60
51 -80 8 -19 19 -38 25 -42 5 -3 10 -13 10 -21 0 -9 7 -22 15 -30 8 -9 15 -24
15 -34 0 -10 20 -33 45 -51 24 -19 45 -41 45 -50 0 -9 9 -26 20 -39 17 -20 26
-54 21 -82 0 -5 7 -16 18 -27 10 -10 23 -25 27 -33 5 -8 26 -27 47 -42 27 -21
37 -36 37 -57 0 -35 3 -37 91 -49 59 -9 74 -8 81 3 10 19 51 65 42 48 -4 -9 4
-23 23 -40 40 -34 78 -132 99 -256 19 -109 30 -127 96 -145 41 -12 58 -33 50
-62 -4 -17 -10 -19 -39 -13 -27 5 -38 2 -48 -11 -10 -14 -16 -16 -26 -7 -8 6
-43 19 -78 29 -35 9 -83 32 -106 50 -23 17 -53 35 -66 39 -21 6 -54 30 -132
95 -10 8 -44 47 -75 85 -31 39 -69 84 -84 100 -16 17 -28 35 -28 41 0 6 -25
50 -55 99 -30 48 -55 89 -55 91 0 2 -23 41 -52 87 -62 99 -98 179 -96 210 1
13 -9 39 -23 58 -36 49 -51 102 -48 167 3 68 -27 152 -41 117 -5 -11 -9 -56
-9 -100 -1 -44 -5 -94 -9 -110 -14 -53 0 -160 26 -189 12 -15 22 -28 22 -31 0
-2 11 -16 24 -30 24 -26 39 -72 26 -80 -3 -2 -23 -2 -43 1 -31 3 -36 2 -30
-13 10 -28 25 -44 66 -70 21 -13 42 -34 47 -47 9 -24 29 -36 59 -36 25 0 91
-67 91 -92 0 -19 -4 -20 -42 -13 -74 13 -83 12 -86 -12 -2 -16 -10 -23 -27
-23 -27 0 -88 24 -80 32 10 10 -22 28 -39 22 -16 -6 -23 -34 -8 -34 5 0 14
-11 20 -25 6 -13 31 -34 54 -46 24 -12 59 -35 80 -50 20 -16 51 -36 70 -44 18
-9 65 -35 103 -60 39 -24 75 -46 80 -48 6 -2 7 -7 4 -11 -3 -3 -87 34 -187 84
-99 49 -185 90 -189 90 -5 0 -20 10 -32 22 -25 23 -91 49 -103 41 -16 -9 -7
-47 18 -80 40 -53 73 -83 80 -72 3 5 13 8 22 7 10 -2 18 6 22 21 5 23 6 23 23
7 9 -10 19 -29 22 -44 3 -15 9 -45 14 -66 5 -23 5 -46 0 -55 -5 -9 -14 -29
-20 -46 l-10 -29 -24 29 c-13 17 -24 37 -25 46 0 9 -9 24 -20 34 -20 18 -20
17 -20 -41 0 -131 25 -174 74 -129 l26 24 0 -50 c0 -27 7 -63 15 -80 11 -21
13 -34 5 -48 -7 -14 -6 -20 5 -25 11 -4 15 -21 14 -63 0 -72 8 -173 16 -195 4
-11 0 -18 -15 -23 -14 -4 -19 -12 -16 -22 3 -8 6 -18 6 -21 0 -4 18 -27 40
-51 22 -24 40 -47 40 -52 0 -4 -13 -16 -29 -25 -30 -17 -30 -18 -12 -43 10
-14 21 -33 24 -41 4 -8 12 -23 19 -32 7 -9 9 -20 6 -23 -14 -15 -44 7 -70 50
-15 25 -31 45 -36 45 -13 0 -7 -142 7 -167 6 -12 14 -63 18 -112 l6 -91 203 0
c112 0 204 3 204 6 0 3 -14 23 -30 44 -26 33 -29 42 -20 65 15 39 4 63 -33 73
-28 8 -32 12 -29 39 2 18 -3 35 -13 43 -16 14 -21 50 -6 50 5 0 33 -5 62 -12
44 -10 58 -19 92 -63 31 -39 49 -52 84 -62 37 -9 45 -9 50 3 6 16 -20 40 -54
48 -29 8 -73 49 -73 69 0 10 -6 13 -20 10 -15 -4 -19 -2 -14 10 4 12 -2 14
-30 12 -32 -3 -38 0 -52 27 -12 24 -14 36 -5 55 14 31 14 44 0 41 -6 -2 -14 3
-16 10 -3 7 3 12 14 12 11 0 3 9 -22 23 -30 17 -40 29 -40 47 0 14 6 25 12 25
26 0 41 39 36 93 -3 28 -9 52 -14 52 -5 0 -9 6 -9 14 0 8 -7 17 -15 20 -13 4
-14 10 -5 26 9 16 8 20 -5 20 -9 0 -15 9 -15 24 0 14 -4 27 -9 30 -5 3 -8 17
-8 31 0 14 -13 41 -29 61 -68 86 -72 108 -23 119 25 6 29 10 23 28 -3 12 -19
36 -34 52 -15 17 -30 38 -33 48 -21 58 139 5 200 -67 13 -14 29 -26 37 -26 17
0 81 -72 98 -112 7 -15 19 -28 25 -28 7 0 13 -4 13 -8 0 -5 14 -24 30 -42 17
-18 30 -38 30 -42 0 -5 24 -20 54 -33 68 -30 112 -71 121 -113 4 -18 10 -30
15 -27 4 3 13 -2 20 -10 7 -8 28 -17 49 -21 59 -10 85 -25 116 -66 23 -30 29
-47 26 -76 -2 -20 -6 -39 -11 -42 -4 -3 -11 -15 -14 -28 -4 -12 -14 -21 -21
-20 -8 2 -14 0 -14 -4 -2 -23 0 -28 13 -28 46 0 81 -131 52 -189 -18 -34 -51
-57 -61 -41 -3 5 -15 10 -26 10 -10 0 -24 9 -31 20 -18 28 -25 25 -39 -14 -12
-33 -15 -35 -51 -31 -40 4 -108 -18 -108 -35 0 -6 5 -10 10 -10 6 0 10 -5 10
-11 0 -6 14 -27 30 -46 17 -18 30 -38 30 -44 0 -17 170 -7 180 10 7 13 11 12
34 -2 21 -14 52 -17 186 -17 l160 0 0 24 c0 14 4 27 9 31 11 6 81 -33 81 -46
0 -5 36 -9 80 -9 74 0 101 10 65 24 -16 6 -11 34 10 51 11 9 24 49 27 83 1 8
12 18 25 23 13 5 23 15 23 24 0 19 43 47 62 40 18 -7 34 29 44 100 4 28 10 52
15 55 5 3 -1 19 -11 35 -20 30 -20 30 -26 7 -4 -12 -11 -22 -18 -21 -29 3 -46
-2 -46 -15 0 -9 -7 -12 -19 -9 -10 3 -28 0 -39 -6 -15 -8 -21 -8 -25 2 -2 6
-7 -5 -11 -26 -8 -42 -28 -56 -51 -37 -8 7 -32 10 -54 8 -37 -3 -40 -2 -45 28
-4 17 -17 45 -31 63 -17 24 -22 41 -18 61 5 27 -28 102 -64 141 -8 10 -15 32
-15 50 -1 18 -10 42 -21 54 -10 11 -23 29 -28 40 -5 11 -16 29 -24 40 -13 19
-13 23 1 43 25 36 97 23 168 -32 17 -12 43 -26 58 -29 22 -6 25 -4 21 12 -2
10 -22 31 -44 47 -21 16 -41 36 -44 44 -3 8 -21 25 -40 37 -20 14 -32 28 -29
37 3 8 -17 33 -48 60 l-52 48 23 17 c27 21 20 45 -20 65 -18 9 -23 19 -22 41
4 45 4 46 -5 103 -5 28 -6 52 -3 52 5 0 14 120 13 180 -1 46 -14 135 -22 150
-4 8 -11 40 -15 70 -4 30 -11 63 -17 73 -5 10 -5 24 0 33 9 16 4 40 -20 103
-7 18 -5 28 6 39 12 12 12 21 1 61 -20 70 -26 180 -13 223 9 32 8 41 -8 65
-10 15 -17 31 -16 36 1 4 -2 7 -6 7 -4 0 -6 16 -4 35 4 30 -1 40 -29 65 -19
16 -37 30 -41 30 -4 0 -8 17 -10 37 -3 32 -9 41 -41 59 -20 11 -35 23 -31 26
3 3 1 14 -4 25 -19 37 -42 94 -42 105 0 6 -16 24 -35 41 -19 16 -35 39 -35 51
0 30 -10 41 -58 65 -37 19 -41 24 -32 41 22 42 56 38 112 -14 20 -19 39 -32
41 -29 3 2 1 18 -4 35 -12 45 -4 51 60 44 31 -4 89 -7 130 -6 71 2 221 -31
288 -62 12 -6 30 -8 40 -4 15 6 13 10 -15 23 -17 8 -32 19 -32 23 0 15 -176
40 -276 40 -23 -1 -54 5 -70 11 -16 6 -78 19 -139 29 -60 10 -137 25 -170 33
-33 8 -139 25 -235 37 -96 12 -193 28 -215 35 l-40 12 38 7 c20 4 37 11 37 16
0 10 -129 55 -147 52 -6 -1 -27 14 -46 33 l-35 36 -4 -47 c-4 -51 -3 -52 92
-80 l45 -14 -55 6 c-30 2 -73 6 -95 8 -22 2 -52 7 -67 11 -14 4 -36 2 -48 -5
-28 -15 -38 -5 -20 23 10 16 13 52 10 137 -1 63 -3 154 -4 202 -1 88 -8 105
-36 88z m76 -545 c3 -29 18 -45 42 -45 10 0 8 9 -7 35 -18 31 -19 37 -6 42 9
3 30 3 47 -1 38 -7 185 -80 216 -106 25 -23 29 -58 7 -66 -23 -9 -18 -34 10
-56 28 -22 109 -181 103 -200 -3 -7 -19 4 -39 27 -19 22 -51 56 -72 76 -24 23
-43 54 -53 88 -8 29 -21 51 -29 51 -7 0 -15 4 -17 9 -1 5 -15 12 -29 16 -36 9
-47 -27 -15 -48 11 -8 18 -18 14 -22 -4 -4 -28 13 -54 39 -27 25 -52 46 -56
46 -5 0 -29 10 -54 21 -43 21 -45 24 -43 59 2 21 -2 44 -9 52 -16 19 -5 29 20
19 13 -5 22 -18 24 -36z m604 -115 c0 -5 -4 -10 -10 -10 -5 0 -10 5 -10 10 0
6 5 10 10 10 6 0 10 -4 10 -10z m100 -13 c0 -7 -5 -18 -11 -24 -16 -16 -4 -31
37 -48 26 -11 34 -20 34 -39 0 -30 -29 -36 -50 -11 -7 8 -19 15 -27 15 -8 0
-30 12 -49 26 -26 20 -32 30 -24 39 8 9 7 14 -2 18 -9 3 -7 7 6 12 11 5 27 3
37 -3 25 -16 29 -15 29 8 0 11 5 20 10 20 6 0 10 -6 10 -13z m-720 -26 c0 -5
14 -14 30 -21 17 -7 30 -19 30 -26 0 -20 -50 -17 -66 4 -16 20 -18 52 -4 52 6
0 10 -4 10 -9z m5 -131 c3 -5 -1 -10 -9 -10 -9 0 -16 5 -16 10 0 6 4 10 9 10
6 0 13 -4 16 -10z m915 -180 c0 -5 -7 -10 -15 -10 -8 0 -15 5 -15 10 0 6 7 10
15 10 8 0 15 -4 15 -10z m-575 -100 c33 -6 94 -21 135 -32 141 -38 153 -46
181 -107 20 -45 137 -165 191 -197 27 -16 101 -108 90 -112 -6 -2 -53 17 -104
42 -51 25 -100 46 -110 46 -10 0 -32 6 -50 14 -18 8 -49 21 -70 30 -31 14
-154 99 -168 117 -3 3 -41 35 -85 70 -44 34 -90 75 -103 91 -13 15 -26 27 -30
27 -41 -6 -58 16 -19 24 27 6 65 3 142 -13z m695 6 c0 -11 -19 -15 -25 -6 -3
5 1 10 9 10 9 0 16 -2 16 -4z m-313 -567 c43 -14 34 -45 -13 -47 -29 -1 -34 2
-34 22 0 19 7 36 15 36 1 0 16 -5 32 -11z m-241 -734 c15 -14 24 -25 21 -25
-8 0 -77 41 -77 46 0 13 33 0 56 -21z"/>
<path d="M6190 3651 c19 -13 108 -32 152 -33 18 0 43 -6 54 -14 15 -8 31 -10
50 -5 l29 8 -25 11 c-14 5 -65 15 -115 22 -49 6 -106 13 -125 16 -26 4 -31 3
-20 -5z"/>
<path d="M6528 3599 c15 -6 30 -5 40 1 13 7 8 9 -23 9 -35 0 -37 -1 -17 -10z"/>
<path d="M6403 3550 l-23 -9 25 -25 c14 -14 25 -31 25 -37 0 -16 77 -89 94
-89 33 0 47 50 23 82 -21 27 -98 88 -110 87 -7 0 -22 -4 -34 -9z"/>
<path d="M5338 3523 c7 -3 16 -2 19 1 4 3 -2 6 -13 5 -11 0 -14 -3 -6 -6z"/>
<path d="M5440 3509 c0 -5 5 -7 10 -4 6 3 10 8 10 11 0 2 -4 4 -10 4 -5 0 -10
-5 -10 -11z"/>
<path d="M5485 3510 c3 -5 8 -10 11 -10 2 0 4 5 4 10 0 6 -5 10 -11 10 -5 0
-7 -4 -4 -10z"/>
<path d="M5120 3452 c0 -5 9 -17 21 -28 17 -15 22 -16 29 -4 6 10 1 18 -17 27
-30 15 -33 16 -33 5z"/>
<path d="M5335 3450 c-3 -5 1 -10 9 -10 9 0 16 5 16 10 0 6 -4 10 -9 10 -6 0
-13 -4 -16 -10z"/>
<path d="M6303 3443 c-7 -2 -13 -11 -13 -18 0 -15 63 -55 86 -55 8 0 20 -13
25 -29 12 -33 37 -48 45 -27 3 7 -5 35 -18 61 -19 38 -31 50 -63 61 -43 15
-44 15 -62 7z"/>
<path d="M5600 3425 c0 -8 7 -15 15 -15 8 0 15 7 15 15 0 8 -7 15 -15 15 -8 0
-15 -7 -15 -15z"/>
<path d="M5650 3376 c0 -8 7 -16 15 -20 10 -4 15 1 15 14 0 11 -7 20 -15 20
-8 0 -15 -6 -15 -14z"/>
<path d="M5186 3338 c-12 -46 -6 -90 19 -126 29 -43 31 -59 8 -84 -23 -26 -29
-192 -7 -225 8 -12 14 -40 14 -63 0 -22 5 -40 10 -40 6 0 10 -18 10 -40 0 -22
5 -40 10 -40 6 0 10 -18 10 -40 0 -22 5 -40 10 -40 6 0 10 -9 10 -19 0 -11 5
-23 10 -26 6 -4 10 -14 9 -23 -2 -10 1 -31 5 -49 8 -33 -14 -88 -41 -106 -22
-14 -14 -34 17 -47 23 -10 29 -17 25 -31 -4 -11 -2 -19 4 -19 6 0 11 -12 11
-26 0 -31 -20 -28 -35 4 -11 24 -30 31 -21 7 3 -8 4 -15 3 -15 -1 0 -16 -4
-34 -9 -25 -7 -35 -5 -52 10 -24 23 -28 23 -47 5 -21 -22 -17 -54 11 -81 30
-31 39 -31 63 0 24 30 32 31 55 5 9 -11 26 -20 36 -20 11 0 23 -9 26 -20 3
-11 13 -20 21 -20 8 0 14 -10 14 -25 0 -16 6 -25 15 -25 9 0 18 -7 21 -15 4
-8 12 -15 20 -15 7 0 17 -6 21 -13 4 -6 20 -18 34 -25 22 -12 30 -12 47 -1 27
17 36 39 17 39 -8 0 -15 -7 -15 -16 0 -8 -4 -12 -10 -9 -5 3 -10 10 -10 14 0
13 80 53 95 47 16 -6 19 3 9 28 -4 11 -19 16 -45 16 -33 0 -39 -3 -39 -21 0
-11 -4 -17 -10 -14 -5 3 -10 17 -10 30 0 22 -23 40 -39 30 -5 -2 -25 5 -47 15
-21 11 -51 20 -66 20 -15 0 -28 5 -28 10 0 6 6 10 14 10 23 0 27 92 6 108 -39
28 18 86 59 60 16 -10 25 -7 55 16 l36 27 -4 72 c-5 84 -14 117 -30 117 -7 0
-22 17 -33 38 -19 32 -21 48 -16 119 6 78 5 82 -21 106 -41 38 -35 57 19 57
33 0 45 4 45 15 0 18 -5 18 -31 5 -32 -18 -59 4 -57 45 1 37 7 42 25 24 6 -6
27 -11 47 -11 34 0 38 -4 53 -39 8 -21 17 -39 20 -39 2 0 14 9 26 20 15 15 29
19 48 15 20 -5 39 1 68 19 22 14 45 26 51 26 13 0 24 45 15 61 -4 6 -2 15 6
19 10 6 6 12 -14 21 -31 14 -34 25 -10 51 14 15 14 19 3 16 -9 -2 -16 6 -18
20 -2 12 -9 22 -15 22 -7 0 -24 8 -37 17 -40 28 -110 6 -110 -35 0 -13 -3 -12
-20 3 -26 23 -90 13 -97 -16 -5 -17 -13 -19 -52 -17 -64 4 -100 43 -116 126
-8 38 -39 45 -49 10z m144 -308 c0 -5 -7 -10 -15 -10 -8 0 -15 5 -15 10 0 6 7
10 15 10 8 0 15 -4 15 -10z m70 -160 c0 -5 -4 -10 -10 -10 -5 0 -10 5 -10 10
0 6 5 10 10 10 6 0 10 -4 10 -10z"/>
<path d="M6220 3326 c0 -32 13 -46 41 -46 36 0 37 12 3 39 -31 25 -44 26 -44
7z"/>
<path d="M6320 3327 c0 -14 40 -37 65 -37 8 0 15 7 15 15 0 8 -9 15 -19 15
-11 0 -23 5 -26 10 -9 15 -35 12 -35 -3z"/>
<path d="M5120 3290 c0 -5 5 -10 11 -10 5 0 7 5 4 10 -3 6 -8 10 -11 10 -2 0
-4 -4 -4 -10z"/>
<path d="M5932 3204 c-7 -8 -8 -14 -3 -14 10 0 25 19 20 25 -2 1 -10 -3 -17
-11z"/>
<path d="M6533 3193 c9 -2 25 -2 35 0 9 3 1 5 -18 5 -19 0 -27 -2 -17 -5z"/>
<path d="M6638 3173 c7 -3 16 -2 19 1 4 3 -2 6 -13 5 -11 0 -14 -3 -6 -6z"/>
<path d="M6675 3170 c3 -5 15 -10 26 -10 10 0 19 5 19 10 0 6 -12 10 -26 10
-14 0 -23 -4 -19 -10z"/>
<path d="M3080 3150 c0 -5 4 -10 9 -10 6 0 13 5 16 10 3 6 -1 10 -9 10 -9 0
-16 -4 -16 -10z"/>
<path d="M6800 3142 c0 -11 69 -27 78 -18 9 10 -4 17 -42 23 -22 3 -36 2 -36
-5z"/>
<path d="M7113 3110 c2 -8 14 -16 28 -17 19 -1 20 -1 4 4 -11 3 -24 10 -28 17
-6 7 -7 6 -4 -4z"/>
<path d="M7530 2970 c-11 -7 -9 -11 13 -19 34 -13 77 -14 95 -2 10 6 5 11 -19
20 -39 13 -69 14 -89 1z"/>
<path d="M7040 2768 c0 -7 11 -21 25 -31 30 -21 45 -4 19 24 -19 21 -44 25
-44 7z"/>
<path d="M7878 2767 c-12 -29 -10 -63 3 -50 6 6 9 23 7 39 -2 24 -4 26 -10 11z"/>
<path d="M5440 2730 c0 -5 5 -10 11 -10 5 0 7 5 4 10 -3 6 -8 10 -11 10 -2 0
-4 -4 -4 -10z"/>
<path d="M7360 2723 c0 -15 67 -89 75 -82 3 4 -13 26 -35 50 -22 24 -40 39
-40 32z"/>
<path d="M7663 2714 c-6 -16 14 -44 32 -44 12 0 29 -28 40 -67 4 -13 11 -23
16 -23 5 0 9 -9 9 -20 0 -12 5 -17 14 -14 17 6 25 -6 28 -40 1 -14 5 -26 8
-26 6 0 25 33 36 63 3 9 13 17 20 17 17 0 17 5 4 30 -6 11 -17 17 -24 14 -8
-3 -22 6 -33 21 -44 64 -82 98 -113 100 -20 2 -34 -3 -37 -11z"/>
<path d="M4078 2713 c7 -3 16 -2 19 1 4 3 -2 6 -13 5 -11 0 -14 -3 -6 -6z"/>
<path d="M5753 2585 c-15 -16 -17 -41 -5 -49 5 -3 21 2 36 10 16 7 35 14 42
14 17 0 18 12 2 28 -16 16 -60 15 -75 -3z"/>
<path d="M7796 2455 c-8 -23 -8 -35 3 -35 13 0 20 25 11 39 -5 10 -9 8 -14 -4z"/>
<path d="M6027 2444 c-8 -9 -9 -64 -1 -64 3 0 11 6 19 13 10 10 10 18 1 35 -7
13 -15 19 -19 16z"/>
<path d="M5360 2280 c0 -22 5 -40 11 -40 5 0 7 5 4 10 -4 6 0 22 9 35 21 31
20 35 -4 35 -17 0 -20 -7 -20 -40z"/>
<path d="M5936 2258 c-10 -14 -16 -44 -16 -81 0 -48 -4 -62 -21 -76 l-21 -17
20 -40 c11 -21 23 -58 27 -81 4 -24 10 -43 15 -43 10 0 22 86 26 199 1 52 5
105 8 117 3 12 0 27 -8 33 -11 10 -18 7 -30 -11z"/>
<path d="M5538 2243 c12 -2 32 -2 45 0 12 2 2 4 -23 4 -25 0 -35 -2 -22 -4z"/>
<path d="M5226 2122 c-3 -6 -1 -14 5 -17 15 -10 25 3 12 16 -7 7 -13 7 -17 1z"/>
<path d="M5272 2075 c14 -15 21 -16 40 -7 23 11 23 11 1 11 -12 1 -30 4 -40 7
-17 6 -17 6 -1 -11z"/>
<path d="M5520 1940 c0 -11 7 -20 15 -20 17 0 18 2 9 24 -9 23 -24 20 -24 -4z"/>
<path d="M5526 1903 c-4 -5 -31 -13 -59 -18 -42 -9 -51 -14 -49 -29 3 -15 -3
-17 -38 -14 -39 3 -42 1 -63 -37 -12 -22 -30 -47 -39 -56 -10 -9 -18 -22 -18
-28 0 -18 52 -60 75 -61 11 0 25 -10 30 -22 6 -13 20 -28 33 -34 12 -6 33 -21
45 -33 24 -22 83 -35 93 -20 3 5 15 9 28 9 12 0 31 6 42 14 23 18 62 10 84
-16 17 -20 80 -42 80 -28 0 5 -16 24 -35 41 -19 18 -35 38 -35 46 0 13 -20 54
-31 63 -3 3 -12 23 -19 45 -7 22 -17 46 -23 53 -6 8 -6 17 2 26 10 11 8 16 -8
21 -12 3 -21 10 -21 15 0 8 -55 70 -62 70 -3 0 -8 -3 -12 -7z m-2 -77 c-3 -8
-12 -12 -20 -9 -21 8 -17 23 6 23 13 0 18 -5 14 -14z"/>
<path d="M5930 1875 c0 -8 2 -15 4 -15 2 0 6 7 10 15 3 8 1 15 -4 15 -6 0 -10
-7 -10 -15z"/>
<path d="M5920 1824 c0 -8 5 -12 10 -9 6 3 10 10 10 16 0 5 -4 9 -10 9 -5 0
-10 -7 -10 -16z"/>
<path d="M4953 1783 c-20 -8 -15 -23 7 -23 11 0 20 7 20 15 0 15 -6 17 -27 8z"/>
<path d="M5920 1731 c0 -17 5 -31 10 -31 6 0 10 11 10 24 0 14 -4 28 -10 31
-6 4 -10 -7 -10 -24z"/>
<path d="M9585 1690 c-3 -5 -1 -10 4 -10 6 0 11 5 11 10 0 6 -2 10 -4 10 -3 0
-8 -4 -11 -10z"/>
<path d="M5153 1664 c-7 -18 11 -39 26 -30 17 11 13 46 -4 46 -9 0 -18 -7 -22
-16z"/>
<path d="M5200 1654 c0 -8 5 -12 10 -9 6 4 8 11 5 16 -9 14 -15 11 -15 -7z"/>
<path d="M5910 1640 c-12 -7 -12 -12 0 -35 10 -18 16 -22 22 -13 19 31 4 64
-22 48z"/>
<path d="M6641 1494 c0 -11 3 -14 6 -6 3 7 2 16 -1 19 -3 4 -6 -2 -5 -13z"/>
<path d="M5248 1423 c16 -39 38 -63 57 -62 19 0 19 1 -2 16 -13 8 -23 23 -23
33 0 10 -7 21 -16 24 -23 9 -24 8 -16 -11z"/>
<path d="M6645 1430 c3 -5 10 -10 16 -10 5 0 9 5 9 10 0 6 -7 10 -16 10 -8 0
-12 -4 -9 -10z"/>
<path d="M5080 1350 c0 -23 13 -26 29 -6 9 11 8 15 -5 20 -23 9 -24 8 -24 -14z"/>
<path d="M5440 1349 c0 -8 -22 -10 -70 -7 -64 5 -85 -1 -60 -17 6 -3 10 -19
10 -35 0 -31 29 -90 45 -90 6 0 17 -15 25 -32 15 -31 46 -56 103 -80 17 -8 27
-20 27 -34 0 -12 6 -27 14 -33 8 -7 17 -23 20 -36 6 -23 19 -29 56 -26 8 1 21
-12 28 -29 13 -29 128 -150 142 -150 4 0 21 -7 36 -15 54 -28 81 -15 49 23
-70 81 -85 102 -85 116 0 9 -8 16 -19 16 -10 0 -21 6 -24 14 -4 9 -14 12 -26
9 -19 -5 -91 28 -118 54 -12 11 -18 43 -9 43 2 0 17 -7 32 -15 16 -8 37 -15
47 -15 10 0 17 -8 17 -20 0 -19 2 -20 30 -5 39 20 50 19 50 -5 0 -11 4 -20 9
-20 5 0 11 -10 13 -22 2 -15 11 -24 26 -26 22 -3 23 -1 17 35 -14 82 -17 93
-29 93 -7 0 -18 10 -24 23 -8 17 -11 18 -11 5 -1 -10 -5 -18 -11 -18 -10 0
-63 22 -70 30 -3 3 -22 14 -42 24 -21 11 -38 26 -38 35 1 15 2 15 13 0 7 -9
30 -18 52 -21 22 -4 34 -4 28 -1 -18 7 -16 33 2 33 20 0 19 19 -6 74 -11 25
-18 50 -14 55 8 14 -18 19 -38 7 -12 -8 -22 -8 -35 2 -9 7 -21 14 -27 16 -37
15 -51 19 -58 17 -5 -1 -11 8 -14 19 -4 14 -14 20 -34 20 -16 0 -29 -5 -29
-11z"/>
<path d="M1 783 l-1 -553 25 -6 c14 -3 35 -4 48 -1 72 18 98 26 127 41 18 8
36 13 41 10 5 -3 9 6 9 20 0 14 -3 25 -7 24 -15 -4 -88 25 -129 50 -31 19 -39
29 -30 37 15 15 93 34 136 33 19 0 67 0 105 1 58 2 73 -2 86 -17 14 -18 18
-18 52 -5 20 9 37 18 37 22 0 15 -100 102 -167 144 -73 47 -97 51 -183 32 -18
-4 -34 2 -57 24 -18 16 -33 32 -33 36 0 8 95 1 128 -10 18 -6 22 -4 22 13 0
25 -35 60 -72 74 -31 11 -35 30 -13 68 21 37 19 45 -24 73 -37 25 -39 28 -40
82 0 31 -7 71 -16 88 -11 21 -18 66 -20 127 -2 52 -8 106 -13 120 -8 18 -11
-139 -11 -527z m154 -253 c15 -6 25 -16 22 -23 -5 -16 -69 -9 -80 9 -4 7 -15
10 -24 7 -11 -4 -14 -3 -9 5 9 15 56 15 91 2z"/>
<path d="M6002 1260 c0 -14 2 -19 5 -12 2 6 2 18 0 25 -3 6 -5 1 -5 -13z"/>
<path d="M6720 1245 c0 -8 5 -15 10 -15 6 0 10 -6 10 -12 1 -32 35 -54 82 -53
25 0 50 4 54 8 13 13 -45 56 -85 63 -20 4 -44 11 -53 16 -13 6 -18 5 -18 -7z"/>
<path d="M5750 1140 c0 -5 5 -10 11 -10 5 0 7 5 4 10 -3 6 -8 10 -11 10 -2 0
-4 -4 -4 -10z"/>
<path d="M8037 1018 c7 -183 21 -340 33 -352 5 -5 10 -20 10 -32 0 -15 14 -33
38 -51 48 -36 58 -49 72 -98 7 -22 22 -53 34 -70 16 -22 21 -43 20 -83 -1 -28
-6 -58 -12 -65 -5 -6 -13 -32 -17 -57 -8 -51 -50 -140 -65 -140 -6 0 -15 -11
-20 -25 -5 -14 -20 -30 -32 -35 -17 -6 1 -9 64 -9 l87 -1 5 43 c3 23 9 69 13
102 4 33 8 76 8 95 0 19 4 69 9 111 7 65 5 83 -12 125 -10 27 -31 90 -46 139
-62 201 -122 389 -135 420 -5 11 -17 39 -26 63 -10 23 -21 42 -26 42 -4 0 -5
-55 -2 -122z"/>
<path d="M5761 1104 c0 -11 3 -14 6 -6 3 7 2 16 -1 19 -3 4 -6 -2 -5 -13z"/>
<path d="M5426 1013 c-5 -6 18 -33 28 -33 3 0 6 6 6 14 0 15 -24 28 -34 19z"/>
<path d="M6025 970 c-3 -5 -15 -10 -26 -10 -23 0 -25 -13 -4 -30 19 -16 41 -7
48 19 6 22 -7 38 -18 21z"/>
<path d="M4867 904 c-23 -31 -19 -68 8 -72 11 -2 28 -11 37 -19 16 -14 20 -14
43 1 25 17 33 36 15 36 -5 0 -10 6 -10 13 0 6 -17 24 -38 38 l-37 27 -18 -24z"/>
<path d="M5268 884 c-4 -3 0 -13 8 -21 19 -20 28 -12 11 11 -7 9 -16 14 -19
10z"/>
<path d="M7620 810 c0 -5 5 -10 10 -10 6 0 10 5 10 10 0 6 -4 10 -10 10 -5 0
-10 -4 -10 -10z"/>
<path d="M5433 725 c-8 -9 -9 -16 -3 -20 14 -8 13 -48 -1 -62 -9 -9 -5 -14 15
-19 34 -8 41 -1 26 26 -6 12 -9 32 -6 45 7 29 -14 49 -31 30z"/>
<path d="M5940 712 c0 -22 32 -70 49 -75 9 -3 31 -10 49 -16 46 -14 31 6 -20
26 -23 9 -48 29 -59 47 -10 17 -19 25 -19 18z"/>
<path d="M5810 650 c0 -5 7 -10 15 -10 8 0 15 5 15 10 0 6 -7 10 -15 10 -8 0
-15 -4 -15 -10z"/>
<path d="M1701 401 c-27 -49 -6 -100 34 -84 23 8 17 97 -7 101 -9 2 -21 -6
-27 -17z"/>
<path d="M776 398 c5 -8 0 -9 -15 -5 -18 4 -20 3 -11 -9 9 -10 17 -11 31 -3
23 12 25 29 3 29 -9 0 -12 -5 -8 -12z"/>
<path d="M427 329 c-7 -28 -6 -31 10 -14 6 6 8 18 3 24 -5 9 -9 5 -13 -10z"/>
<path d="M507 336 c-12 -31 -8 -36 28 -36 28 0 35 4 35 20 0 22 -39 29 -41 8
0 -7 -4 -4 -8 6 -7 18 -8 18 -14 2z"/>
<path d="M581 304 c0 -11 3 -14 6 -6 3 7 2 16 -1 19 -3 4 -6 -2 -5 -13z"/>
<path d="M4966 201 c-8 -12 3 -41 15 -41 12 0 12 37 0 45 -5 3 -12 1 -15 -4z"/>
<path d="M9504 189 c-40 -11 -61 -50 -48 -87 5 -15 16 -27 24 -28 8 0 22 -3
30 -6 8 -4 32 -9 53 -12 l37 -5 0 68 c0 63 -2 69 -22 75 -28 7 -35 7 -74 -5z"/>
<path d="M4835 136 c-25 -35 -9 -44 81 -45 71 -1 84 1 84 15 0 9 -9 18 -20 21
-11 3 -20 12 -20 21 0 12 -3 13 -12 4 -14 -14 -48 -16 -48 -3 0 16 -52 6 -65
-13z"/>
<path d="M6614 74 c12 -11 13 -20 6 -34 -18 -34 -11 -40 46 -40 59 0 69 14 25
36 -12 6 -32 21 -45 33 -26 25 -57 30 -32 5z"/>
<path d="M7982 38 c-25 -25 -13 -38 33 -38 51 0 57 11 18 31 -16 7 -30 15 -33
16 -3 2 -11 -2 -18 -9z"/>
<path d="M9398 24 c-19 -19 -2 -24 75 -24 58 1 77 3 65 10 -22 13 -131 24
-140 14z"/>
</g>
</svg>
